<?xml version="1.0" encoding="utf-8"?>
<!-- Generator: Adobe Illustrator 24.1.1, SVG Export Plug-In . SVG Version: 6.00 Build 0)  -->
<svg version="1.1" id="Livello_1" xmlns="http://www.w3.org/2000/svg" xmlns:xlink="http://www.w3.org/1999/xlink" x="0px" y="0px"
	 viewBox="0 0 3968.5 1984.3" style="enable-background:new 0 0 3968.5 1984.3;" xml:space="preserve">
<style type="text/css">
	.st0{fill:#FFFFFF;}
	.st1{fill:#F6F6F6;}
</style>
<g>
	<path d="M1845.9,587.2c-3,0-6.2-0.7-9.2-2.1c-6.1-2.9-12-7.6-18.1-14.3c-0.5-0.5-0.9-1-1.4-1.5c-0.7,7.8-3.1,14.9-11,16.5
		c-2.5,0.5-4.7,0.7-6.6,0.7c-4.5,0-8.2-1.3-11-3.9c-3.1-3.1-7.2-10.5-7.2-40.1c-0.2-15.9-0.5-33.9,3.5-51.3
		c1.2-5.5,4.7-11.9,10.7-13.3c2-0.4,4-0.7,5.9-0.7c5.4,0,10,1.8,13.1,5.1c1.6,1.8,2.8,3.9,3.4,6.3c5.1-2,10.1-3,15.1-3
		c13,0,24.2,7.2,29.4,18.7c5.3,11.8,3,25-6.1,35.3c-4,4.6-9.6,8.6-15.8,11.6c2.1,1.3,4.1,2.4,6.3,3.5c0.4,0.2,0.9,0.4,1.5,0.7
		c7,3.2,11.1,5.3,12.7,7.8c4.3,7,0.3,16.1-6,20.9c-2.1,1.6-4.7,2.7-7.2,3C1847.2,587.2,1846.5,587.2,1845.9,587.2z M1830.3,513.4
		c-5.2,0-11.8,3.3-12.3,7.4c-0.3,2.4,0,3.8,0.4,4.2c0.3,0.3,1,0.3,1.3,0.3c2.9,0,7.2-2.3,8.7-3.9c5-5.3,4.7-7.5,4.7-7.5
		C1833.1,513.9,1832.2,513.4,1830.3,513.4z"/>
	<path class="st0" d="M1801.6,481.3c7.9,0,13.7,4.6,13,13.5c6.6-3.5,12.9-5.1,18.5-5.1c24.1,0,37.8,27.6,20.4,47.3
		c-5.2,5.9-13.1,10.8-21.5,13.4c4.4,2.8,8.6,5.7,13.4,7.9c2.5,1.2,11,4.7,12.5,7.1c3.1,5-0.4,12-5.1,15.5c-1.5,1.2-3.4,2-5.3,2.2
		c-0.5,0.1-1.1,0.1-1.6,0.1c-2.6,0-5.2-0.7-7.5-1.7c-6.4-3.1-12-8-16.8-13.4c-2.8-3.2-5.6-6.5-8.2-9.9c0.2,10.1,0.5,22-7.9,23.7
		c-1.9,0.4-3.9,0.6-5.8,0.6c-3.1,0-6-0.7-8.2-2.8c-5.7-5.6-5.9-29-5.9-37.2c-0.2-16.8-0.4-34,3.4-50.4c0.9-4.3,3.6-9.3,7.7-10.3
		C1798.3,481.5,1800,481.3,1801.6,481.3 M1819.8,529.4c4.2,0,9.5-2.9,11.6-5.2c9.7-10.4,5.6-14.8-1-14.8c-6.5,0-15.5,4.2-16.2,11
		C1813.3,527.2,1816.1,529.4,1819.8,529.4 M1801.6,473.3c-2.2,0-4.4,0.3-6.7,0.7l0,0l0,0c-7.8,1.8-12.2,9.6-13.7,16.3
		c-4.1,17.9-3.9,36.1-3.6,52.2c0,30.7,4.4,39,8.3,42.8l0.1,0.1l0.1,0.1c3.5,3.3,8.1,4.9,13.7,4.9c2.2,0,4.6-0.3,7.4-0.8
		c3.7-0.7,9.8-3.2,12.7-12c5.1,4.9,10.1,8.5,15.2,11l0.1,0l0.1,0c3.5,1.6,7.3,2.5,10.8,2.5c0.8,0,1.7,0,2.5-0.1l0,0l0,0
		c3.2-0.4,6.5-1.8,9.2-3.8c7.8-5.9,12.5-17.2,7.1-26.1l0-0.1l0-0.1c-2.2-3.3-6.6-5.8-14.4-9.3c-0.5-0.2-0.9-0.4-1.2-0.5
		c4-2.6,7.6-5.6,10.5-8.9c10-11.3,12.6-26.5,6.7-39.6c-5.9-13-18.5-21.1-33.1-21.1c-4.2,0-8.5,0.7-12.7,2c-0.9-1.6-1.8-2.9-2.8-4
		C1813.8,475.5,1808.1,473.3,1801.6,473.3L1801.6,473.3z M1829.2,513.7C1829.2,513.7,1829.2,513.7,1829.2,513.7L1829.2,513.7
		L1829.2,513.7z M1822.4,520.6c0.6-0.7,1.9-1.6,3.5-2.2c-0.1,0.1-0.2,0.2-0.3,0.3C1825,519.3,1823.7,520.1,1822.4,520.6
		L1822.4,520.6z"/>
</g>
<g>
	<path d="M1883.5,588.9c-5.2,0-8.9-1.1-11.3-3.3c-6.5-6.3-6.7-22.3-5.8-39c-4-2.9-6.1-8.3-5.4-14.4c0.7-5.4,3.4-9.5,7.3-11.3
		c0.1-1.2,0.2-2.5,0.2-3.9c0.1-1.9,0.2-3.9,0.4-5.7c-2.8-1.7-5-4.6-5.9-8.1c-1.3-5,0-10,3.4-13c9-8.4,23-8.4,33.3-8.4l2.9,0
		c0.9,0,1.9,0,2.8,0l2.6,0c16.9,0,25.8,1.3,29.7,4.2c3.7,2.9,5.7,7.2,5.5,12.1c-0.2,4.9-2.6,9.4-6.6,12c-3.2,2.1-9.2,3.1-19.3,3.1
		c-4.7,0-9.4-0.2-13.2-0.4c-1.5-0.1-2.8-0.1-3.8-0.2c-0.1,0.8,0,2,0.1,3.2c3.1-0.4,6.5-0.7,9.8-0.7c9.4,0,15.3,2.9,17.5,8.5
		c1.8,4.7,1.7,13.9-2.8,18c-3.9,3.7-13.5,5.3-27.8,6.5c-0.7,0.1-1.3,0.1-1.8,0.2c-0.4,1.7,0.3,5.5,1.3,6.6c3-0.2,6.4-1.2,10-2.3
		c4.4-1.3,9-2.7,13.6-2.7c0.9,0,1.8,0.1,2.6,0.2c6.8,0.9,9.9,4.3,11.4,7c2.4,4.6,2,10.8-1.4,17.3c-4.5,8.5-15.6,9.9-24.6,11
		c-1.3,0.2-2.6,0.3-3.9,0.5c-1.2,0.2-2.6,0.4-4.3,0.8C1895.2,587.7,1889,588.9,1883.5,588.9z"/>
	<path class="st0" d="M1908,485.9c7.8,0,23,0.2,27.3,3.4c5.7,4.4,5.1,13.6-0.8,17.5c-2.9,2-9.9,2.5-17.1,2.5
		c-7.2,0-14.6-0.5-18.1-0.6c0,0-0.1,0-0.1,0c-4.3,0-2.6,7.6-2.3,11.7c3.9-0.6,8.8-1.3,13.4-1.3c6.2,0,11.9,1.3,13.7,6
		c1.4,3.7,1.2,10.9-1.8,13.6c-4.1,4-22.1,5.1-28,5.7c-4.9,0.5-3,14.6,2.2,14.6c0,0,0,0,0.1,0c7.5-0.2,16.2-5,23.9-5
		c0.7,0,1.4,0,2.1,0.1c10.2,1.3,11.5,9.7,7,18.6c-4,7.7-16.4,8-25.4,9.3c-4.7,0.7-13.5,2.8-20.5,2.8c-3.6,0-6.8-0.6-8.6-2.2
		c-6.5-6.3-4.9-29.5-4.4-38.3c-8.4-3-7.1-19.4,1.5-20.2c0.5-4,0.6-11.2,1.2-15.3c-6.6-1.4-9-11.2-4.1-15.6c7.5-7,19.6-7.3,30.6-7.3
		c1,0,1.9,0,2.9,0c1,0,1.9,0,2.8,0C1906.2,485.9,1907,485.9,1908,485.9 M1908,477.9l-1.5,0l-1.1,0h0l0,0c-0.9,0-1.8,0-2.7,0l-1.4,0
		l-1.5,0c-10.9,0-25.9,0-36.1,9.4c-4.5,4.1-6.2,10.6-4.5,17c1,3.6,3,6.8,5.6,9c-0.1,1.2-0.1,2.4-0.2,3.5c0,0.6-0.1,1.2-0.1,1.8
		c-4,2.7-6.7,7.4-7.4,13.2c-0.8,6.6,1.3,12.7,5.3,16.6c-0.9,19.2,0.1,33.3,7.1,40l0,0l0,0c3.2,3,7.8,4.4,14,4.4
		c5.9,0,12.6-1.3,17.5-2.2c1.7-0.3,3.1-0.6,4.2-0.7c1.1-0.2,2.4-0.3,3.8-0.5c9.4-1.2,22.2-2.7,27.6-13.1l0,0l0,0
		c3.9-7.7,4.4-15.2,1.3-21c-2.4-4.6-6.9-7.7-12.7-8.9c1-0.6,1.8-1.2,2.5-1.9c5.9-5.5,6-16.5,3.7-22.3c-0.7-1.8-1.8-3.7-3.6-5.5
		c5.1-0.6,8.6-1.6,11.1-3.3c5-3.3,8.1-9,8.3-15.1c0.2-6.1-2.4-11.8-7.1-15.4l0,0l0,0C1935.4,479.3,1926.4,477.9,1908,477.9
		L1908,477.9z"/>
</g>
<g>
	<path d="M2010.5,594.8c-9.6,0-16.4-4.9-16.9-12.3l-0.2-2.1c-0.4-3.8-1-9.8-1.7-16.6c-4.7,0.1-9.8,0.3-15,0.4
		c-1.9,8.6-4.8,17.2-11.1,20.1c-2.1,0.9-4.3,1.3-6.6,1.3c-8.2,0-15.5-5.2-17-12c-0.4-1.8-0.4-4.1,0-7.2c-0.4-0.1-0.7-0.2-1.1-0.3
		l-0.1-0.1c-2.4-1-4.5-3.2-5.3-5.7c-1.6-4.7-2.8-13.8,2.3-18l0.1-0.1c2.6-2,5.9-2.5,8.5-2.9l0.2,0c0.7-0.1,1.7-0.2,2.8-0.3
		c0.2-0.6,0.4-1.1,0.5-1.6c0.4-1.3,0.8-2.4,1.1-3.2c8.7-25.1,15.3-40.1,19.5-44.7c5.2-5.5,12.5-8.7,19.9-8.7
		c8.8,0,16.2,4.4,19.8,11.9c4.2,8.4,8.8,23.8,12.3,41.5c1.7,0.2,3.6,0.6,4.9,1.3l0.2,0.1c1.6,0.9,3.2,2.5,4.2,4.3
		c2.3,3.9,2.5,8.4,2.5,11.4v0.1l0,0.1c-0.2,3.3-1.2,5.9-2.9,7.8l-0.1,0.1c-1.1,1.1-2.6,2.1-4.3,2.8c0.1,0.6,0.1,1.2,0.2,1.8
		c0.1,1,0.2,2.3,0.4,3.7c0.9,8.2,1.5,15.4-0.9,19.7C2024,591.8,2017.7,594.8,2010.5,594.8z M1986.5,529.1c-1,2.7-2,5.6-3,8.5
		c1.4-0.1,2.9-0.2,4.4-0.3C1987.4,534.1,1986.9,531.4,1986.5,529.1z"/>
	<path class="st0" d="M1990.4,484.8c6.7,0,13.1,3.1,16.2,9.6c4.9,9.7,9.5,27.3,12.5,43.4c2.5,0.1,5.3,0.6,6.5,1.2
		c1.1,0.6,2,1.7,2.6,2.7c1.7,2.8,2,6.3,2,9.5c-0.1,1.9-0.6,3.9-1.9,5.3c-1.1,1.1-2.5,1.8-3.9,2.2c-0.6,0.2-1.3,0.5-1.9,0.7
		c0.1,1.7,0.4,3.2,0.5,4.7c0.4,5,2.5,16.7,0,21.2c-2,3.5-7.3,5.4-12.6,5.4c-6.3,0-12.5-2.7-13-8.6c-0.4-3.6-1.2-12.4-2.4-22.5
		c-7.2,0.2-14.6,0.5-21.8,0.6c-1.5,7.5-3.9,17.9-9.5,20.4c-1.6,0.7-3.3,1-5,1c-5.9,0-11.9-3.7-13.1-8.9c-0.5-2.2,0-5.9,0.8-10.3
		c-0.8,0.1-1.6,0.2-2.3,0.2c-0.9,0-1.6-0.1-2.1-0.3c-1.4-0.6-2.6-1.9-3.1-3.3c-1.3-3.9-2.1-11,1.1-13.6c1.9-1.4,4.5-1.8,6.9-2.1
		c0.8-0.1,3.4-0.5,5.1-0.5c1.1-3.1,1.9-5.7,2.5-7.3c2.7-7.8,13-37.2,18.7-43.3C1977.9,487.3,1984.3,484.8,1990.4,484.8 M1978,542
		c1.7-0.1,3.2-0.1,4.9-0.2c3.2-0.1,6.5-0.5,9.7-0.8c-1.7-10.9-3.6-20.6-5.3-24.1C1983.7,524.6,1980.6,533.3,1978,542 M1990.4,476.8
		L1990.4,476.8c-8.6,0-16.9,3.6-22.8,9.9l0,0l0,0c-1.9,2-6.9,7.5-20.4,46.1c-0.3,0.7-0.5,1.6-0.9,2.5c-0.1,0-0.2,0-0.3,0l0,0l0,0
		l-0.2,0c-2.9,0.4-6.8,1-10.3,3.6l-0.1,0.1l-0.1,0.1c-8.4,6.9-4.1,20.8-3.6,22.3c1,3.1,3.3,5.8,6.1,7.4c-0.1,2,0,3.8,0.3,5.4l0,0.1
		l0,0.1c2,8.6,11,15.1,20.9,15.1c2.9,0,5.6-0.5,8.1-1.6l0.1,0l0.1,0c7.1-3.2,10.4-11.3,12.6-19.8c2.8-0.1,5.5-0.1,8.2-0.2
		c0.6,5.3,1,9.8,1.3,12.8l0.2,2.1c0.8,9.5,9.2,15.9,20.9,15.9c6.9,0,15.7-2.5,19.6-9.5l0,0l0,0c3-5.4,2.4-13.2,1.3-22.1
		c-0.1-1-0.2-1.9-0.3-2.7c1.1-0.7,2.1-1.4,2.9-2.3l0.1-0.1l0.1-0.1c2.4-2.6,3.7-6,4-10.2l0-0.2v-0.2c0-3.5-0.3-8.7-3.1-13.4
		c-1.4-2.4-3.4-4.5-5.7-5.8l-0.2-0.1l-0.2-0.1c-1-0.5-2.2-0.9-3.4-1.2c-2.3-11-6.6-28.7-12.1-39.8
		C2009.5,482,2000.7,476.8,1990.4,476.8L1990.4,476.8z"/>
</g>
<g>
	<path d="M2046.7,586.3c-1.5,0-2.9-0.2-4.2-0.5c-3.5-0.8-6.5-3.7-8.1-7.7l0-0.1l0-0.1c-0.9-2.8-1.3-5.7-1.7-8.3l0-0.2
		c-1.2-9.8-1.2-19.6-1.2-29.1l0-2.4c0-13.2,0.5-28.7,4.1-43.4l0.2-0.9c0.7-2.9,1.6-6.6,4.3-9.2l0.1-0.1l0.1-0.1
		c1.5-1.2,3.5-2.1,6-2.7c1.9-0.4,3.8-0.6,5.7-0.6c2.6,0,5.2,0.4,7.6,1.2c2.9,0.9,5.6,2.6,7.6,4.7l0.1,0.2c2,2.4,3.1,4.7,3.3,7
		c0.5,3.7,0.2,7.4,0,10.6l0,0.1c-0.9,9.1-1.9,18.1-3,27.2c-0.8,6.5-2,13-3.1,19.2c0,0.1,0,0.2-0.1,0.3c3.6-0.3,7.5-0.7,12-1.3
		c0.5-0.1,1-0.1,1.5-0.1c2.9,0,5.6,1,7.5,2.6c1.8,1.6,2.7,3.7,3.3,5.5c2.1,5.5,2.1,11.7,0,16.5c-1.4,3.1-4.3,5.8-8,7.2
		c-3.2,1.2-6.5,1.4-9.4,1.6c-0.9,0.1-1.8,0.1-2.7,0.2l-0.1,0c-4.1,0.3-7.7,0.6-11,1.1c-0.9,0.2-1.9,0.3-2.9,0.5
		C2052.1,585.8,2049.4,586.3,2046.7,586.3z"/>
	<path class="st0" d="M2052,484.7c2.2,0,4.3,0.3,6.4,1c2.2,0.7,4.4,2,5.9,3.7c1.2,1.4,2.2,3.1,2.4,4.9c0.5,3.3,0.2,6.6,0,9.8
		c-0.9,9.1-1.9,18.1-3,27.1c-1.1,8.2-2.6,16.2-4,24.4c5.8-0.4,11.5-0.9,17.3-1.7c0.3,0,0.7-0.1,1-0.1c1.7,0,3.6,0.5,4.8,1.6
		c1.2,1.1,1.8,2.5,2.2,3.9c1.7,4.3,1.9,9.5,0.1,13.6c-1.1,2.4-3.4,4.1-5.8,5.1c-3.4,1.3-7.3,1.2-11,1.5c-3.8,0.2-7.6,0.6-11.4,1.2
		c-3.3,0.5-6.8,1.5-10.2,1.5c-1.1,0-2.2-0.1-3.3-0.4c-2.5-0.6-4.4-3-5.3-5.3c-0.8-2.5-1.2-5.2-1.5-7.8c-1.3-10.3-1.2-20.6-1.2-31
		c0-14.2,0.6-28.6,4-42.5c0.7-2.8,1.3-6.2,3.4-8.2c1.2-0.9,2.8-1.5,4.4-1.9C2048.8,484.9,2050.4,484.7,2052,484.7 M2052,476.7
		c-2.2,0-4.4,0.2-6.5,0.7c-3.1,0.7-5.6,1.9-7.6,3.5l-0.3,0.2l-0.2,0.2c-3.6,3.4-4.7,7.9-5.5,11.1c-0.1,0.3-0.1,0.6-0.2,0.9
		c-3.8,15.2-4.3,31-4.3,44.4l0,2.4c0,9.6,0,19.6,1.2,29.6l0,0l0,0l0,0.2c0.4,2.8,0.8,5.9,1.8,9l0.1,0.2l0.1,0.2
		c2.1,5.2,6.2,9,10.9,10.1c1.6,0.4,3.3,0.6,5.1,0.6c3.2,0,6.1-0.6,8.7-1.1c1-0.2,1.9-0.4,2.8-0.5c3.1-0.5,6.6-0.8,10.6-1.1l0.1,0
		l0.1,0c0.8-0.1,1.6-0.1,2.5-0.2c3.2-0.2,6.8-0.4,10.5-1.8l0.1,0l0.1,0c4.6-1.9,8.3-5.2,10.1-9.2l0-0.1l0-0.1
		c2.5-5.8,2.5-13.1,0.1-19.5c-0.7-2.1-1.9-4.9-4.4-7.1c-2.6-2.3-6.3-3.7-10.2-3.7c-0.7,0-1.3,0-2,0.1c-2.4,0.3-4.6,0.5-6.7,0.8
		c0.8-4.8,1.6-9.6,2.3-14.5l0,0l0,0c1.1-9.1,2-18.1,3-27.2l0-0.1l0-0.1c0.2-3.2,0.5-7.2,0-11.3c-0.3-3.1-1.7-6.1-4.2-9.1l-0.1-0.2
		l-0.1-0.2c-2.4-2.6-5.7-4.7-9.3-5.8C2058,477.2,2055,476.7,2052,476.7L2052,476.7z"/>
</g>
<g>
	<path d="M2102.9,586.3c-1.5,0-2.9-0.2-4.2-0.5c-3.5-0.8-6.5-3.7-8.1-7.7l0-0.1l0-0.1c-0.9-2.8-1.3-5.7-1.7-8.3l0-0.2
		c-1.2-9.8-1.2-19.6-1.2-29.1l0-2.4c0-13.2,0.5-28.7,4.1-43.4l0.2-0.9c0.7-2.9,1.6-6.6,4.3-9.2l0.1-0.1l0.1-0.1
		c1.5-1.2,3.5-2.1,6-2.7c1.9-0.4,3.8-0.6,5.7-0.6c2.6,0,5.2,0.4,7.6,1.2c2.9,0.9,5.6,2.6,7.6,4.7l0.1,0.2c2,2.4,3.1,4.7,3.3,7
		c0.5,3.7,0.2,7.4,0,10.6l0,0.1c-1,9.1-1.9,18.1-3,27.2c-0.8,6.5-2,13-3.1,19.2c0,0.1,0,0.2-0.1,0.3c3.6-0.3,7.5-0.7,12-1.3
		c0.5-0.1,1-0.1,1.5-0.1c2.9,0,5.7,1,7.5,2.6c1.8,1.6,2.7,3.7,3.3,5.5c2.1,5.5,2.1,11.7,0,16.5c-1.4,3.1-4.3,5.8-8,7.2
		c-3.2,1.2-6.5,1.4-9.4,1.6c-0.9,0.1-1.8,0.1-2.7,0.2l-0.1,0c-4.1,0.3-7.7,0.6-11,1.1c-0.9,0.2-1.9,0.3-2.9,0.5
		C2108.3,585.8,2105.7,586.3,2102.9,586.3z"/>
	<path class="st0" d="M2108.2,484.7c2.2,0,4.3,0.3,6.4,1c2.2,0.7,4.4,2,5.9,3.7c1.2,1.4,2.2,3.1,2.4,4.9c0.5,3.3,0.2,6.6,0,9.8
		c-0.9,9.1-1.9,18.1-3,27.1c-1.1,8.2-2.6,16.2-4,24.4c5.8-0.4,11.5-0.9,17.3-1.7c0.3,0,0.7-0.1,1-0.1c1.7,0,3.6,0.5,4.8,1.6
		c1.2,1.1,1.8,2.5,2.2,3.9c1.7,4.3,1.9,9.5,0.1,13.6c-1.1,2.4-3.4,4.1-5.8,5.1c-3.4,1.3-7.3,1.2-11,1.5c-3.8,0.2-7.6,0.6-11.4,1.2
		c-3.3,0.5-6.8,1.5-10.2,1.5c-1.1,0-2.2-0.1-3.3-0.4c-2.5-0.6-4.4-3-5.3-5.3c-0.8-2.5-1.2-5.2-1.5-7.8c-1.3-10.3-1.2-20.6-1.2-31
		c0-14.2,0.6-28.6,4-42.5c0.7-2.8,1.3-6.2,3.4-8.2c1.2-0.9,2.8-1.5,4.4-1.9C2105,484.9,2106.6,484.7,2108.2,484.7 M2108.2,476.7
		c-2.2,0-4.4,0.2-6.5,0.7c-3.1,0.7-5.6,1.9-7.6,3.4l-0.3,0.2l-0.2,0.2c-3.6,3.4-4.7,7.9-5.5,11.1c-0.1,0.3-0.1,0.6-0.2,0.9
		c-3.8,15.2-4.3,31-4.3,44.4l0,2.4c0,9.6,0,19.6,1.2,29.6l0,0l0,0l0,0.2c0.4,2.8,0.8,5.9,1.8,9l0.1,0.2l0.1,0.2
		c2.1,5.2,6.2,9,10.9,10.1c1.6,0.4,3.3,0.6,5.1,0.6c3.2,0,6.1-0.6,8.7-1.1c1-0.2,1.9-0.4,2.8-0.5c3.1-0.5,6.6-0.8,10.6-1.1l0.1,0
		l0.1,0c0.8-0.1,1.6-0.1,2.5-0.2c3.2-0.2,6.8-0.4,10.5-1.8l0.1,0l0.1,0c4.6-1.9,8.3-5.2,10.1-9.2l0-0.1l0-0.1
		c2.5-5.8,2.5-13.1,0.1-19.5c-0.7-2.1-1.9-4.9-4.4-7.1c-2.6-2.3-6.3-3.7-10.2-3.7c-0.7,0-1.3,0-2,0.1c-2.4,0.3-4.6,0.5-6.7,0.8
		c0.8-4.8,1.6-9.6,2.3-14.5l0,0l0,0c1.1-9.1,2-18.1,3-27.2l0-0.1l0-0.1c0.2-3.2,0.5-7.2,0-11.3c-0.3-3.1-1.7-6.1-4.2-9.1l-0.1-0.2
		l-0.1-0.2c-2.4-2.6-5.7-4.7-9.3-5.8C2114.2,477.2,2111.2,476.7,2108.2,476.7L2108.2,476.7z"/>
</g>
<g>
	<path d="M2173.9,589.5c-0.5,0-0.9,0-1.4,0c-2.8-0.1-5.7-0.6-8.6-1.5c-2.3-0.7-5.3-2.1-7.2-4.8c-1.8-2.5-3.6-7.5-0.9-24.6l1.7-11.4
		c-4.2-4.1-7.4-7.7-10.1-11.4c-6.1-8.1-10-14.6-12.7-21.1c-1-2.6-1.6-5.2-1.9-8.4c-0.5-4.3,0.6-8.7,3-11.6c3.1-3.9,8.4-6.8,14.5-7.9
		c1.4-0.3,3-0.5,4.5-0.5c2.3,0,4.5,0.4,6.4,1.1l0.1,0.1l0.1,0.1c2.8,1.3,5.3,3.7,7,6.8c1.9,3.5,2.8,7.2,3.6,10.8l0.1,0.3
		c0.3,1.2,0.6,2.5,0.9,3.8c0.8-2,1.7-3.9,2.5-5.8c2.5-5.6,5.7-12.2,9.8-18.2c1.8-2.7,3.6-4.6,5.7-5.7c1.5-0.8,3.3-1.3,5.3-1.3
		c0.9,0,1.7,0.1,2.5,0.3c4,0.6,7.4,2.8,10.2,4.8c2.7,1.9,4.8,4.8,5.6,7.9l0,0.1c0.5,2.1,0.3,4.4-0.7,7c-0.7,2-1.7,4-3,6.4
		c-1.3,2.4-2.8,4.6-4.2,6.9c-1,1.6-2.1,3.3-3.1,5c-4.5,7.5-8,14.2-10.8,20.5c-1.8,4-2.7,7.4-3,10.6l0,0.1
		c-0.6,5.3-0.5,10.5-0.4,16.1c0.1,2.8,0.1,5.6,0.1,8.4c0,3.6-0.2,7.8-2.6,11.3c-1.3,2-3.1,3.5-5.2,4.4
		C2179.6,589,2177,589.5,2173.9,589.5z"/>
	<path class="st0" d="M2196.4,482.1c0.6,0,1.2,0.1,1.8,0.2c3.2,0.5,6,2.2,8.6,4.1c1.9,1.3,3.4,3.4,4,5.7c0.4,1.5,0,3.2-0.6,4.7
		c-0.7,2-1.7,3.9-2.7,5.8c-2.2,4-4.9,7.8-7.2,11.8c-4,6.7-7.8,13.7-11,20.9c-1.7,3.8-3,7.7-3.3,11.8c-0.9,8.3-0.2,16.7-0.4,25
		c0,3.1-0.1,6.5-1.9,9.1c-0.8,1.3-2,2.4-3.4,3c-2,0.9-4.2,1.2-6.4,1.2c-0.4,0-0.8,0-1.2,0c-2.6-0.1-5.2-0.6-7.7-1.3
		c-1.9-0.6-3.9-1.7-5.1-3.3c-2.8-3.9-0.9-17-0.2-21.7c0.6-3.9,1.2-7.8,1.8-11.7c0.1-0.5,0.1-1.2,0.2-2c-0.4-0.2-0.7-0.6-1.1-0.8
		c-3.7-3.6-7.1-7.2-10.1-11.2c-4.7-6.3-9.2-13-12.2-20.2c-0.9-2.4-1.4-4.7-1.7-7.2c-0.4-3,0.2-6.4,2.1-8.8c2.8-3.6,7.6-5.7,12.1-6.5
		c1.2-0.3,2.5-0.4,3.8-0.4c1.7,0,3.4,0.3,5,0.9c2.2,1.1,4,3,5.2,5.1c1.7,3.1,2.5,6.6,3.3,10.1c1.3,5.3,2.7,10.7,4,16
		c2-5.9,4.5-11.7,7-17.4c2.7-6,5.7-12.1,9.5-17.6c1.1-1.7,2.5-3.4,4.3-4.4C2194,482.4,2195.2,482.1,2196.4,482.1 M2196.4,474.1
		c-2.6,0-5.1,0.6-7.2,1.7c-2.7,1.4-5,3.7-7.1,7c-3.2,4.7-5.8,9.7-8,14.3c-0.5-1.6-1.2-3.2-2-4.7l0,0l0,0c-2.1-3.8-5.1-6.7-8.8-8.4
		l-0.3-0.1l-0.3-0.1c-2.4-0.9-5.1-1.4-7.9-1.4c-1.8,0-3.5,0.2-5.3,0.5c-6.9,1.3-13.1,4.7-16.8,9.4c-3.1,3.8-4.5,9.2-3.8,14.6
		c0.3,3.5,1,6.5,2.2,9.3l0,0l0,0c3.6,8.9,9.3,16.8,13.2,22c2.5,3.4,5.4,6.7,9,10.4l-0.5,3.6l-0.9,5.9c-2.8,18.3-0.8,24.2,1.7,27.5
		c2.6,3.6,6.4,5.4,9.2,6.3l0.1,0l0.1,0c3.2,0.9,6.4,1.5,9.5,1.6c0.5,0,1,0,1.5,0c3.6,0,6.7-0.6,9.6-1.9c2.8-1.2,5.2-3.2,6.9-5.9
		c3.2-4.8,3.2-10.4,3.2-13.5c0-2.9,0-5.7-0.1-8.5c-0.1-5.5-0.2-10.6,0.4-15.6l0-0.1l0-0.1c0.2-2.7,1.1-5.7,2.7-9.3
		c2.7-6.2,6.2-12.7,10.5-20.1c1-1.7,2-3.3,3.1-5c1.4-2.3,2.9-4.6,4.3-7.1c1.4-2.6,2.5-4.8,3.2-6.9c1.2-3.3,1.5-6.4,0.9-9.3l0-0.1
		l0-0.1c-1.1-4-3.7-7.7-7.1-10.2c-3.2-2.3-7-4.7-11.9-5.5C2198.6,474.2,2197.5,474.1,2196.4,474.1L2196.4,474.1z"/>
</g>
<g>
	<path d="M2289,587.9c-0.4,0-0.8,0-1.2,0c-24.5-0.5-36.2-23.3-36.5-44.3c-0.1-7.5,0.6-15.5,2.2-23.9c4.8-27,25.2-41.2,42.8-41.2
		c15.6,0,31.7,11.1,32.4,36c0.2,3.9-0.5,7.1-2,9.7c-0.6,1-1.3,1.9-2.1,2.7c1.3,0.3,2.7,0.8,4,1.5c2,1.1,3.8,2.8,5,5l0.1,0.1
		c1.9,3.5,2.2,10.8,0.5,14.4c-0.8,1.9-2.4,3.5-4.3,4.5c0,2.6-0.5,5.2-1.5,7.9c-2.6,7.4-7.6,14.3-14.1,19.3
		C2307.6,584.9,2298.4,587.9,2289,587.9z M2291.7,510.3c-0.2,0-0.4,0.1-0.6,0.1l-0.1,0c-2.7,0.8-5.8,7.7-6.9,15.3
		c-0.5,3.1-0.8,5.9-0.9,8.5c0-0.1,0.1-0.1,0.1-0.1c2.5-3.7,10.5-5.9,12-6.2c0.6-0.1,1.2-0.3,1.7-0.4c-0.9-0.6-1.7-1.2-2.3-1.9
		c-2.2-2.5-2.4-5.8-2.5-7.4c-0.1-2.7-0.2-5.1-0.6-7.4C2291.7,510.6,2291.7,510.5,2291.7,510.3z"/>
	<path class="st0" d="M2296.3,482.5c14.6,0,27.8,10.4,28.4,32.1c0.1,2.6-0.1,5.3-1.4,7.6c-0.9,1.7-2.6,3-4.4,3.8
		c-2.4,1-5.2,1.5-7.9,1.5c-1,0-2.1-0.1-3.1-0.2c-2.5-0.2-8.5-2.4-10.1-4.3c-1.2-1.3-1.4-3.3-1.5-5.1c-0.1-2.6-0.2-5.2-0.6-7.7
		c-0.1-0.8-0.5-2.8-1.2-3.3c-0.7-0.4-1.6-0.6-2.4-0.6c-0.8,0-1.6,0.1-2.3,0.4c-5.9,1.8-8.9,12.8-9.7,18.6
		c-1.1,7.1-1.5,14.6,0.2,21.7c1.2,5,4,7.1,7.1,7.1c3.4,0,7.2-2.4,10.2-5.8c-1.4,0.4-2.7,0.6-4.1,0.6c-0.3,0-0.6,0-0.8,0
		c-0.9,0-1.8-0.2-2.6-0.5c-1.3-0.5-2.4-1.5-3-2.7c-1.1-2.2-1.9-7.2-0.5-9.2c1.3-2,7.3-4,9.7-4.6c5.5-1.2,11.2-1.9,16.8-1.9
		c2.4,0,4.8,0.1,7.2,0.4c2.1,0.2,4.4,0.6,6.3,1.7c1.5,0.8,2.7,2.1,3.6,3.6c1.3,2.4,1.5,8.4,0.4,10.8c-0.7,1.7-2.4,2.8-4.1,3.3
		c-0.2,0.1-0.5,0.2-0.8,0.2c0.6,2.7,0.4,5.8-0.9,9.2c-2.4,6.7-7,13-12.8,17.5c-6.2,4.9-14.7,7.4-22.8,7.4c-0.4,0-0.7,0-1.1,0
		c-22.2-0.5-32.3-21.3-32.7-40.4c-0.1-7.7,0.7-15.5,2.1-23.1C2261.7,495.6,2279.9,482.5,2296.3,482.5 M2296.3,474.5
		c-10.5,0-20.8,4.1-29.3,11.7c-9.1,8.1-15.1,19.5-17.5,32.8c-1.6,8.6-2.4,16.9-2.3,24.6c0.4,22.8,13.3,47.6,40.5,48.2
		c0.4,0,0.9,0,1.3,0c10.3,0,20.4-3.3,27.7-9c7-5.5,12.5-12.9,15.4-21.1c0.9-2.4,1.5-4.8,1.7-7.1c1.7-1.4,3.1-3.1,4-5.1
		c2.2-4.7,1.9-13.3-0.6-18l0-0.1l-0.1-0.1c-1.6-2.7-3.7-4.9-6.3-6.3c1.5-3,2.1-6.5,1.9-10.8C2331.8,486.8,2313.8,474.5,2296.3,474.5
		L2296.3,474.5z M2288.1,526.1c0.2-1.3,0.5-2.6,0.8-3.8c0.2,1,0.6,2,1.1,3.1C2289.3,525.6,2288.7,525.8,2288.1,526.1L2288.1,526.1z"
		/>
</g>
<g>
	<path d="M2369.5,586.8c-17.2,0-36.1-12.2-38.7-35.5c-2.3-20.4,4.1-42.5,16.4-56.2c7.9-8.9,17.6-13.6,28-13.6
		c4.2,0,8.5,0.8,12.7,2.3c10.8,3.8,18.7,11.3,23,21.6c6.4,15.8,4,38.3-6.3,58.8C2397.6,578.3,2384.5,586.8,2369.5,586.8z
		 M2377.1,517.8c-2.3,0-4.7,1.3-6.5,3.6c-5.5,6.9-8.5,20.2-4.2,26c1.4,1.9,3.3,2.3,4.5,2.3h0c2.2,0,4.4-1.2,5.8-3.2
		c3.3-4.7,6.7-19.6,5.1-24.7C2380.8,518.5,2378.7,517.8,2377.1,517.8z"/>
	<path class="st0" d="M2375.2,485.5c3.6,0,7.4,0.6,11.4,2c29.5,10.3,28.3,47.2,14.4,74.9c-6.9,13.9-19.3,20.3-31.6,20.3
		c-16.3,0-32.4-11.4-34.7-31.9C2331.3,520.7,2348.4,485.5,2375.2,485.5 M2370.9,553.6c3.4,0,6.8-1.7,9.1-4.9
		c3.9-5.7,7.7-21.7,5.7-28.2c-1.4-4.6-4.8-6.7-8.6-6.7c-3.4,0-7,1.7-9.7,5.1c-6.2,7.7-10.2,23.1-4.3,30.9
		C2365.2,552.4,2368,553.6,2370.9,553.6 M2375.2,477.5v8V477.5L2375.2,477.5c-11.6,0-22.3,5.2-31,14.9c-13,14.6-19.9,37.9-17.4,59.4
		c1.3,11.7,6.4,21.7,14.8,28.8c7.7,6.6,17.6,10.2,27.8,10.2c16.6,0,31-9.3,38.7-24.8c5-9.9,8.3-20.7,9.6-31.1
		c1.5-11.5,0.3-22.2-3.2-31c-4.7-11.5-13.4-19.7-25.4-23.9C2384.6,478.3,2379.8,477.5,2375.2,477.5L2375.2,477.5z M2369.5,544.9
		c-2.9-3.8-0.7-15,4.2-21c1.2-1.5,2.6-2.1,3.4-2.1c0.3,0,0.6,0,0.9,1.1l0,0l0,0c1.1,3.6-1.8,17.1-4.6,21.2c-0.8,1.1-1.8,1.5-2.5,1.5
		C2370.3,545.6,2369.9,545.4,2369.5,544.9L2369.5,544.9z"/>
</g>
<g>
	<path d="M2449.4,586.8c-17.2,0-36.1-12.2-38.7-35.5c-2.3-20.4,4.1-42.5,16.4-56.2c7.9-8.9,17.6-13.6,28-13.6
		c4.2,0,8.5,0.8,12.7,2.3c10.8,3.8,18.7,11.3,22.9,21.6c6.4,15.8,4,38.3-6.3,58.8C2477.6,578.3,2464.5,586.8,2449.4,586.8z
		 M2457.1,517.8c-2.3,0-4.7,1.3-6.5,3.6c-5.5,6.9-8.5,20.2-4.2,26c1.4,1.9,3.3,2.3,4.5,2.3l0,0c2.2,0,4.4-1.2,5.8-3.2
		c3.3-4.7,6.7-19.6,5.1-24.7C2460.8,518.5,2458.7,517.8,2457.1,517.8z"/>
	<path class="st0" d="M2455.2,485.5c3.6,0,7.4,0.6,11.4,2c29.5,10.3,28.3,47.2,14.4,74.9c-6.9,13.9-19.3,20.3-31.6,20.3
		c-16.3,0-32.4-11.4-34.7-31.9C2411.3,520.7,2428.4,485.5,2455.2,485.5 M2450.9,553.6c3.4,0,6.8-1.7,9.1-4.9
		c3.9-5.7,7.7-21.7,5.7-28.2c-1.4-4.6-4.8-6.7-8.6-6.7c-3.4,0-7,1.7-9.7,5.1c-6.2,7.7-10.2,23.1-4.3,30.9
		C2445.2,552.4,2448,553.6,2450.9,553.6 M2455.2,477.5v8V477.5L2455.2,477.5c-11.6,0-22.3,5.2-31,14.9c-13,14.6-19.9,37.9-17.4,59.4
		c1.3,11.7,6.4,21.7,14.8,28.8c7.7,6.6,17.6,10.2,27.8,10.2c16.6,0,31-9.3,38.7-24.8c5-9.9,8.3-20.7,9.6-31.1
		c1.5-11.5,0.3-22.2-3.2-31c-4.7-11.5-13.4-19.7-25.4-23.9C2464.5,478.3,2459.8,477.5,2455.2,477.5L2455.2,477.5z M2449.5,544.9
		c-2.9-3.8-0.7-15,4.2-21c1.2-1.5,2.6-2.1,3.4-2.1c0.3,0,0.6,0,0.9,1.1l0,0l0,0c1.1,3.6-1.8,17.1-4.6,21.2c-0.8,1.1-1.8,1.5-2.5,1.5
		C2450.3,545.6,2449.9,545.4,2449.5,544.9L2449.5,544.9z"/>
</g>
<g>
	<path d="M2510.6,587.6c-0.3,0-0.6,0-1,0c-10.6-0.4-12-11-12.9-17.4c-0.2-1.2-0.3-2.3-0.5-3.3c-3.3-17.2-4.7-36-4.4-57.5
		c0.1-4,0.3-8.7,1.1-13.5c0.5-2.9,1.9-5.7,3.8-7.9l0.1-0.1c2.2-2.2,5.2-4,9.2-5.5l0.1,0c3.7-1.2,7.8-1.9,11.7-1.9
		c1.2,0,2.4,0.1,3.5,0.2l0.1,0c2.8,0.4,5.1,1.3,7,2.9c0.4,0.3,0.7,0.7,1,1c0.3-0.2,1-0.5,1-0.5c0.4-0.2,0.8-0.4,1.1-0.5
		c1.5-0.7,3-1.5,4.8-2c2.9-0.8,5.8-1.3,8.8-1.3c4,0,7.9,0.8,11.5,2.2c6.1,2.4,10.9,5.7,14.3,10c2.2,2.8,4.7,6.2,6.3,10
		c2.5,5.6,4,11,4.3,16.2c0.8,10.3,0.1,19.9-2.3,28.3c-2.2,8.2-5.7,16.2-10.4,22.9l-0.1,0.1c-3.6,4.9-8.3,9.1-13.5,12.1
		c-2.3,1.3-4.9,2.4-7.7,3.2c-3.3,1.1-6.7,1.6-9.8,1.6c-1.1,0-2.1-0.1-3.1-0.2c-2.7-0.3-5.4-1.2-8.5-2.8c-0.8-0.4-1.5-0.7-1.9-0.9
		c-0.4,0.2-0.8,0.5-1.2,0.7c-1.2,0.7-2.6,1.5-4.1,2.1C2516.6,587,2513.6,587.6,2510.6,587.6z M2536.4,509.9c-1.2,0-2.2,0.4-3,1
		c-2.3,2-4.2,5.2-5.1,8.9c-1.1,4.1-1,8.4-0.8,12.5c0,1,0.1,2.1,0.1,3.3c0.1,5,0.3,18.2,4.1,18.2l0,0c0.5,0,1.5-0.2,3.1-1
		c2.5-1.4,4.5-4.1,6.5-6.7c1.5-1.9,2.6-4.4,3.4-8.1c1.3-5.3,1.4-11.2,0.1-17.1c-0.9-3.8-2.4-7-4.4-9.3
		C2539.5,510.6,2538,509.9,2536.4,509.9z"/>
	<path class="st0" d="M2545.3,484.3c3.4,0,6.8,0.6,10,1.9c4.9,1.9,9.5,4.7,12.7,8.8c2.2,2.8,4.4,5.8,5.8,9.1c2.1,4.7,3.7,9.8,4,14.9
		c0.7,9,0.2,18.3-2.1,27c-2,7.7-5.3,15.1-9.8,21.7c-3.3,4.5-7.6,8.3-12.3,11c-2.1,1.2-4.5,2.1-6.9,2.8c-2.8,0.9-5.8,1.5-8.7,1.5
		c-0.9,0-1.8-0.1-2.7-0.2c-2.5-0.2-4.9-1.2-7.1-2.4c-0.9-0.5-2.8-1.5-4.1-1.5c-0.3,0-0.5,0-0.8,0.2c-1.9,0.9-3.7,2.2-5.8,3.1
		c-2.1,1-4.6,1.4-7,1.4c-0.3,0-0.5,0-0.8,0c-8.8-0.4-8.4-11.1-9.6-17.4c-3.6-18.7-4.6-37.7-4.4-56.7c0.1-4.4,0.4-8.6,1.1-12.9
		c0.4-2.1,1.4-4.3,2.8-5.8c2.1-2.1,5-3.6,7.8-4.6c3.3-1.1,6.9-1.7,10.4-1.7c1,0,2.1,0.1,3.1,0.2c1.8,0.2,3.6,0.8,5,2
		c0.9,0.8,1.8,2,2.2,3.2c1.3-0.7,2.6-1.4,4-2.1c1.8-0.8,3.6-1.8,5.4-2.4C2540.2,484.7,2542.7,484.3,2545.3,484.3 M2531.7,557.8
		c1.4,0,3-0.4,5-1.4c3.2-1.8,5.6-4.9,7.8-7.8c2.1-2.7,3.3-6.2,4.1-9.6c1.5-6.2,1.4-12.8,0.1-18.9c-0.9-3.9-2.6-7.9-5.2-11
		c-1.7-2.1-4.4-3.2-7.1-3.2c-2,0-4,0.6-5.6,2c-3.2,2.7-5.3,6.9-6.4,10.9c-1.2,4.5-1.2,9.1-0.9,13.7
		C2523.8,540.5,2523,557.8,2531.7,557.8 M2545.3,476.3c-3.4,0-6.7,0.5-9.9,1.4l-0.1,0l-0.1,0c-1.9,0.6-3.6,1.4-5.1,2.1
		c-2.3-1.6-5-2.7-8.2-3.1l-0.1,0l-0.1,0c-1.3-0.1-2.6-0.2-3.9-0.2c-4.3,0-8.8,0.7-12.9,2.1l-0.1,0l-0.1,0.1c-4.5,1.7-8,3.8-10.7,6.4
		l-0.1,0.1l-0.1,0.1c-2.5,2.7-4.3,6.3-4.9,9.9c-0.8,5-1.1,9.9-1.2,14l0,0.1l0,0.1c-0.3,21.8,1.2,40.8,4.5,58.3
		c0.2,0.8,0.3,1.9,0.4,3c0.5,3.4,1,7.7,2.8,11.5c2.7,5.8,7.6,9.1,13.9,9.4c0.3,0,0.7,0,1.1,0c3.5,0,7.1-0.7,10.1-2.1
		c1.5-0.6,2.9-1.3,4-2c3.5,1.8,6.6,2.8,9.8,3.2c1.2,0.1,2.4,0.2,3.6,0.2c3.6,0,7.3-0.6,11.1-1.8c3-0.9,5.9-2.1,8.4-3.5l0.1,0l0.1,0
		c5.7-3.3,10.8-7.9,14.8-13.2l0.1-0.1l0.1-0.1c4.9-7.1,8.7-15.4,11-24.1c2.4-8.9,3.2-18.9,2.4-29.6c-0.4-5.6-2-11.5-4.7-17.5
		c-1.8-4.3-4.5-7.9-6.8-10.9c-3.8-4.8-9.2-8.6-16-11.2C2554.3,477.2,2549.8,476.3,2545.3,476.3L2545.3,476.3z M2536,513.9
		c0.1,0,0.2-0.1,0.4-0.1c0.5,0,0.9,0.2,0.9,0.3c1.5,1.8,2.8,4.5,3.5,7.6c1.1,5.3,1.1,10.6-0.1,15.2l0,0l0,0
		c-0.7,3.1-1.6,5.2-2.7,6.5l0,0l0,0c-1.6,2.1-3.5,4.6-5.2,5.6c-1.1-3.4-1.2-10.8-1.3-13.8c0-1.2,0-2.3-0.1-3.3l0-0.1l0-0.1
		c-0.2-3.8-0.2-7.7,0.7-11.3C2533,517.9,2534.4,515.4,2536,513.9L2536,513.9L2536,513.9z"/>
</g>
<g>
	<path class="st1" d="M1059.3,950.2c-53.8,0-88.2-47.4-101.4-88.1c-6.1-18.9-10.4-39.9-12.9-62.5c-5-41.5,5.7-79.5,30.1-107
		c19.5-22,45.9-34.7,72.4-34.7c18.2,0,35.4,6,49.8,17.3c15.6,12.2,27.4,30,35.1,52.9c3.5,9.9,4.3,18.5,2.5,26.2
		c-1.5,6.6-5.6,13.2-11.4,18.4l-0.3,0.2c-8.4,7-19.7,12-31.9,14.1c-3.3,0.6-7.2,0.8-10,0.8c-5.5,0-19-0.5-26.4-5.3
		c-7.4-4.5-10.5-12.9-12.1-16.9l-0.1-0.2c-2.3-6.5-4.5-12.6-7.1-18.2c-0.2-0.5-0.4-0.9-0.6-1.2c-0.5,0.2-1.1,0.5-1.6,0.9l-0.3,0.2
		c-6.3,4.2-8.9,24.1-5.8,44.5c3.3,22.5,8.2,38.2,16,51.2c1.8,3,5.4,8.1,9.4,8.1c4.8,0,12.6-6.7,17.3-17.8
		c10.4-24.8,30.8-40.1,53.2-40.1c12.1,0,23.2,4.7,31.2,13.2c6.4,6.8,13.7,19,12.5,39.2c-0.9,21-8.4,42.3-20.9,60
		c-13.6,19.3-35.8,34.3-61,41.2C1076.4,949,1067.7,950.2,1059.3,950.2z"/>
	<path d="M1047.5,668.5c30.4,0,60.1,19.2,75,63.2c2.3,6.5,3.8,13.7,2.2,20.4c-1.1,5-4.3,9.5-8.2,13c-7.3,6.2-17.3,10.2-27,11.8
		c-2,0.4-4.8,0.6-8.1,0.6c-7.6,0-17.1-1.1-20.8-3.7c-4-2.4-6.2-7.3-7.9-11.8c-2.3-6.5-4.6-13.1-7.5-19.1c-0.9-2-3.4-6.9-5.6-7.5
		c-0.8-0.2-1.7-0.3-2.5-0.3c-3.4,0-7.1,1.6-9.7,3.4c-13.7,9.1-12.7,39.4-10.4,54.8c2.8,18.9,7.3,38.3,17.3,55
		c5.5,9.4,12,13.2,18.4,13.2c10.8,0,21.3-10.8,26.9-24.3c9.7-22.9,27.4-33.6,43.5-33.7c18.6,0,34.8,14.5,33.2,41.3
		c-0.8,19-7.7,38.6-19,54.5c-12.6,18-33.6,31.3-55.2,37.2c-8,2.2-15.6,3.3-23,3.3c-45.2,0-77.9-39.3-91.4-80.8
		c-6.2-19.5-10.2-40-12.4-60.4C946,720.1,997.7,668.5,1047.5,668.5 M1047.5,647.5c-29.5,0-58.7,13.9-80.2,38.2
		c-12.6,14.2-21.9,31.1-27.6,50.2c-6.1,20.3-7.8,42.2-5,65c2.6,23.2,7,44.9,13.3,64.4l0,0l0,0c8.1,25.1,22,48,39.2,64.6
		c20.8,20.1,45.8,30.8,72.2,30.8c9.4,0,19-1.4,28.6-4c27.5-7.5,51.8-24,66.8-45.3c13.7-19.4,21.8-42.6,22.8-65.5
		c1.1-18.6-4.4-35.2-15.4-46.9c-8.9-9.5-20.8-15.1-33.9-16.3c0.6-0.5,1.3-1,1.9-1.5l0.3-0.2l0.2-0.2c7.4-6.7,12.6-15.2,14.7-23.9
		c2.3-9.7,1.3-20.1-2.8-32c-8.4-24.8-21.4-44.2-38.5-57.7C1087.6,654.3,1068.1,647.5,1047.5,647.5L1047.5,647.5z M1053.6,839.2
		c-0.3-0.5-0.7-1-1.1-1.7l0,0l0,0c-7-11.7-11.5-26.3-14.6-47.2l0-0.1l0-0.1c-0.6-3.9-1-8.2-1.1-12.4c2.6,4.7,6.5,10.1,12.6,13.9
		c8.9,5.7,22.3,6.9,32,6.9c0.2,0,0.4,0,0.6,0c-9.1,7.9-16.5,18.3-21.6,30.5l0,0l0,0C1058.2,834.2,1055.5,837.5,1053.6,839.2
		L1053.6,839.2z"/>
</g>
<g>
	<path class="st1" d="M1298,1015.4c-6.5,0-16.1-1.1-24.3-6.2l-0.2-0.1c-18.6-12-15.8-45.3-13.9-67.4c0.2-2.1,0.3-4,0.5-5.6
		c0.3-4.4,0.5-9,0.8-13.4c0.2-3.2,0.3-6.5,0.5-9.7c-2.9-0.3-5.7-0.6-8.7-1l-0.2,0c-0.1,0-0.1,0-0.2,0c-0.3,4.1-0.5,8.1-0.8,12.1
		c-0.5,7.7-1,15.7-1.5,23.6c-0.7,9.5-1.8,20.6-5.9,31.1c-3.4,8.5-8.7,15.3-15.6,19.7l-0.1,0.1c-7.7,4.8-17.3,7.5-27.1,7.5
		c-14.5,0-27.4-5.6-35.5-15.5l-0.1-0.1c-7.6-9.4-12.2-21.7-14.6-38.8c-4.2-29.1-4.1-57.7-3.5-81.9l0-1.1c0.5-11.9,1.1-23.2,1.9-34.9
		c1.5-20.8,3-42.2,7.5-63.1c1.4-6.7,3.3-14.6,6.9-22.8c3.9-8.6,11.4-15.9,20.2-19.5l0.2-0.1c4.6-1.8,10.3-2.7,17.2-2.7
		c12.9,0,31.3,3.4,41.3,11c3.8,2.8,8.2,6.4,11.4,11.7c3.7,5.9,4.1,12.6,4.1,18.4c0.1,9.4-1.3,18.6-2.6,27.5c-0.5,3.2-1,6.6-1.4,9.9
		c-0.3,2.8-0.6,5.7-1,8.6c-0.8,7.6-1.7,15.3-2.8,23.1c5.2,0,10.6,0.1,15.9,0.4c0.3-8.7,0.8-17.5,1.4-26.2l0-0.1
		c0.7-13.9,1.4-28.2,3.4-42.6c1.2-10.8,4.1-19.4,8.6-26.1l0.2-0.3c4.9-6.8,12.7-12.6,21.6-15.8l0.2-0.1c6.4-2.2,14.3-3.4,22.7-3.4
		c7.6,0,33.4,1.2,46.5,17c8,9.4,9.4,21.7,9.4,28.3c0,20.3-3.8,39.9-7.5,58.8c-1.2,6-2.4,12.3-3.5,18.4l0,0.1
		c-5.1,27.6-9.7,55.8-14.2,83.1l0,0.2c-0.7,3.7-1.3,7.6-1.9,11.3c-2.3,14-4.8,28.4-9.4,42.4l-0.1,0.3l-0.1,0.3
		c-2.6,6.6-5.9,14.1-12,20.1c-7.5,7.8-19.2,12.8-32.2,13.6l-0.2,0l-0.2,0C1298.9,1015.4,1298.4,1015.4,1298,1015.4z"/>
	<path d="M1324.8,731.9c14.8,0,31,4.2,38.4,13.3c5,5.7,6.9,14.1,7,21.7c0.1,25.6-6.5,50.4-10.8,75.3c-5.1,27.7-9.7,55.5-14.2,83.3
		c-3.1,17.5-5.4,35.3-11,52.3c-2.3,5.8-5,12-9.7,16.7c-6.2,6.5-16.2,9.9-25.4,10.5c-0.4,0-0.8,0-1.1,0c-6.3,0-13.3-1.2-18.7-4.6
		c-14.8-9.6-9.9-46.5-8.7-63.5c0.8-11.3,1-22.7,2.1-33.6c-6.3-0.1-12.6-0.9-19.1-1.7c-3.5-0.2-7.2-0.8-11-1.1
		c-1.1,15.4-1.9,30.8-3,46.5c-0.7,9.4-1.7,19.1-5.2,28.1c-2.3,5.8-6.2,11.2-11.5,14.7c-6.2,3.9-13.9,5.9-21.5,5.9
		c-10.5,0-21-3.8-27.4-11.6c-7.5-9.4-10.7-21.9-12.4-33.7c-3.8-26.5-4.1-53.3-3.4-80.1c0.5-12,1.1-23.6,1.9-35.5
		c1.5-20.7,3-41.5,7.3-61.7c1.5-7.2,3.2-14,6.2-20.7c2.6-5.8,8.1-11.4,14.6-14.1c3.5-1.3,8.2-1.9,13.4-1.9c12.5,0,27.8,3.5,35,8.9
		c3.3,2.4,6.6,5.2,8.8,8.8c2.3,3.6,2.6,8.4,2.6,12.8c0.1,12-2.3,23.8-3.9,36c-1.7,14.4-3,28.8-5.6,43.5c0.6-0.1,1.3-0.1,1.8-0.1
		c0.6,0,1,0,1.3,0.1c11.7,0.2,23.7-0.2,35.3,1.6c0.3-12.3,0.8-24.9,1.7-37.1c0.7-14.2,1.4-28,3.3-42.1c0.9-7.5,2.7-15.3,6.9-21.6
		c3.9-5.4,10.2-9.7,16.7-12.1C1310.9,732.8,1317.7,731.9,1324.8,731.9 M1324.8,710.9v21V710.9L1324.8,710.9c-9.6,0-18.6,1.4-26.1,4
		l-0.2,0.1l-0.2,0.1c-10.9,4-20.4,11-26.5,19.6l-0.2,0.3l-0.2,0.3c-2.4,3.6-4.4,7.5-6,11.8c-0.6-1.4-1.4-2.8-2.2-4.2
		c-4.2-6.7-9.7-11.3-14.1-14.6c-12.9-9.7-33.7-13.1-47.6-13.1c-8.2,0-15.3,1.1-21,3.4l-0.2,0.1l-0.2,0.1
		c-11.1,4.6-20.7,13.9-25.7,24.9l0,0l0,0c-4.1,9.1-6.1,17.7-7.6,25c-4.6,21.6-6.1,43.4-7.7,64.5c-0.9,11.9-1.4,23.2-1.9,35.2l0,0.9
		l0,0.2l0,0.2c-0.6,24.6-0.7,53.8,3.6,83.6c1.7,12,5.3,29.6,16.8,43.9l0.1,0.1l0.1,0.1c10.1,12.3,26,19.3,43.6,19.3
		c11.7,0,23.3-3.2,32.7-9.1l0.1-0.1l0.1-0.1c6.5-4.2,11.9-9.9,15.9-16.9c2.6,11.3,7.9,21.2,17.7,27.6l0.2,0.1l0.2,0.1
		c10.3,6.4,21.9,7.8,29.8,7.8c0.5,0,1.1,0,1.6,0l0.4,0l0.4,0c15.6-1,29.8-7.1,39-16.8c7.5-7.5,11.3-16.1,14.2-23.6l0.2-0.6l0.2-0.6
		c4.9-14.8,7.4-29.7,9.8-44c0.6-3.8,1.3-7.5,1.9-11.1l0-0.2l0-0.2c4.4-27.2,9-55.3,14.1-82.8l0-0.1l0-0.1c1-6,2.2-11.9,3.4-18.2
		c3.8-19.4,7.7-39.5,7.7-60.8l0-0.1l0-0.1c-0.2-13.7-4.4-26.1-11.9-35C1363.3,712.4,1333.5,710.9,1324.8,710.9L1324.8,710.9z"/>
</g>
<g>
	<path class="st1" d="M1537.2,942.5c-22.3,0-38-10.8-41.2-28.1c-0.3-1.5-0.7-3.4-1.1-5.6c-2-9.9-5.1-25.6-9-43.6
		c-12.7,1.7-26.2,3.5-39.8,5.1c-2.8,23.3-8,47-24,56.1l-0.2,0.1c-6.4,3.5-14,5.4-21.8,5.4c-20,0-37.8-11.3-43.2-27.4l-0.1-0.2
		c-1.5-4.6-2-10.5-1.8-19.1c-1.1-0.1-2.1-0.3-3.1-0.6l-0.2,0l-0.2-0.1c-6.7-2-12.7-7.3-15.6-13.7c-5.4-12-11.1-35.6,1.4-48.1
		l0.1-0.1l0.2-0.1c6.5-5.9,14.9-8.1,21.6-9.8l0.5-0.1c1.9-0.5,4.5-1.1,7.3-1.6c0.4-1.6,0.7-3.1,1-4.6c0.8-3.4,1.4-6.4,2-8.8
		c16.5-68.7,29.9-110.3,39.9-123.5l0.1-0.1c13.5-17.5,35.3-28.4,57.1-28.4c20.7,0,38.5,9.6,48.8,26.4
		c13.4,21.3,29.5,60.8,43.6,106.7c4.3,0.2,9.7,0.7,13.5,2.1l0.2,0.1l0.2,0.1c4.5,2,8.9,5.6,12,10.1c7,9.8,8.9,21.5,9.7,29.6l0,0.3
		l0,0.3c0.3,8.6-1.6,15.8-5.7,21.3l-0.1,0.2l-0.1,0.2c-2.7,3.3-6.4,6.2-10.8,8.6c0.3,1.5,0.7,3.1,0.9,4.7c0.4,2.6,1.2,5.9,2,9.8
		c4.6,21.5,8.1,40.2,2.9,52.3C1577.2,934.9,1554.8,942.5,1537.2,942.5z M1463,774.3c-2,7.7-3.9,15.7-5.7,24.1
		c3.9-0.6,7.9-1.3,12-2.1C1466.9,787.5,1464.8,780.3,1463,774.3z"/>
	<path d="M1467.2,656c15.8,0,30.9,6.8,39.9,21.5c15.4,24.4,32.3,69.9,44.7,111.7c1.4-0.1,2.8-0.1,4.2-0.1c5.4,0,10.8,0.5,13.4,1.5
		c3,1.3,5.8,3.9,7.6,6.5c5.1,7.1,7,16.1,7.8,24.5c0.2,5-0.5,10.5-3.6,14.6c-2.5,3.1-6.1,5.4-9.7,7c-1.5,0.8-3.3,1.6-4.8,2.4
		c0.8,4.4,1.8,8.4,2.5,12.4c2.3,13.1,11,43.5,5.6,56.1c-4.8,11-21.8,17.9-37.7,17.9c-14.7,0-28.4-5.8-30.8-19.6
		c-1.9-9.3-6.4-32.6-12.2-58.9c-19.1,2.5-38.4,5.1-57.5,7.3c-2.1,20.2-5.6,48.4-19.7,56.4c-5.1,2.8-10.9,4.1-16.8,4.1
		c-14.5,0-29.1-7.9-33.3-20.3c-1.8-5.8-1.6-15.7-0.5-27.5c-3.1,0.7-6.1,1.2-8.5,1.2c-1.2,0-2.2-0.1-3.1-0.3c-3.9-1.2-7.4-4.3-9-8
		c-4.5-10-8.6-28.6-0.8-36.3c4.6-4.3,11.4-5.9,17.6-7.5c2.2-0.5,9-2.2,13.4-2.6c2-8.4,3.5-15.5,4.6-20.1
		c5.1-21.4,24.6-101.9,38.1-119.7C1430.6,664.6,1449.4,656,1467.2,656 M1443.9,811c4.4-0.8,8.4-1.2,12.8-1.9
		c8.4-1.2,17.1-3,25.5-4.8c-7.3-28.4-14.9-53.6-20.5-62.5C1454.4,763.4,1448.5,787.4,1443.9,811 M1467.2,635
		c-25.3,0-49.7,12.2-65.4,32.5l-0.1,0.1l-0.1,0.1c-5.1,6.8-12.6,20.3-25.5,65.3c-7.6,26.3-14,53.1-16.1,62c-0.5,2-1,4.4-1.6,7
		c-0.3,0.1-0.7,0.2-1,0.2l-0.1,0l-0.1,0l-0.5,0.1c-7.5,1.9-17.7,4.5-26.1,12.2l-0.3,0.3l-0.3,0.3c-5.6,5.6-11.9,16-10.3,34
		c0.7,8.5,3.2,17.9,6.7,25.7c3.6,7.9,10.1,14.4,18.1,18c0.2,5.3,0.9,10.1,2.3,14.4l0.1,0.2l0.1,0.2c6.8,20.4,28.7,34.6,53.2,34.6
		c9.6,0,18.9-2.3,26.9-6.7l0.2-0.1l0.2-0.1c17.9-10.2,24.6-32.6,28.1-55.8c7.5-0.9,15-1.9,22.2-2.9c2.9,13.9,5.3,25.8,6.9,33.9
		c0.4,2.2,0.8,4.1,1.1,5.6c4.1,22.2,24.3,36.6,51.5,36.6c21.7,0,47.7-9.4,56.9-30.4l0-0.1l0-0.1c6.4-14.9,2.7-35.4-2.3-58.6
		c-0.6-2.7-1.1-5.2-1.5-7.3c2.8-2.1,5.2-4.4,7.3-6.9l0.3-0.4l0.3-0.4c5.6-7.4,8.2-16.9,7.8-28l0-0.7l-0.1-0.7
		c-0.9-9.2-3.1-22.8-11.6-34.6c-4.3-6.1-10.1-10.9-16.4-13.6l-0.4-0.2l-0.4-0.2c-2.6-1-5.7-1.7-9.3-2.2c-9-28.4-25-74.5-42.6-102.4
		C1512.7,646.4,1491.6,635,1467.2,635L1467.2,635z"/>
</g>
<g>
	<path class="st1" d="M1622.2,1030.2c-20.2,0-38.5-9.5-46.8-24.1c-10.3-18.6-10-50.4,0.7-97.3c7.2-31.6,17.8-63.8,25.6-86.5
		c-0.7,0-1.5,0-2.2,0c-21.2,0-35.1-5.1-41.5-15.1c-8.1-12.6-8.4-30.1-1-52.2c3.5-10.8,13.4-23.6,40.9-23.6c12.9,0,26.6,2.6,39.5,5.3
		l2.5,0.5c44.5,8.7,87.6,19.2,100.7,36.7c7.7,10.2,10.2,25.4,6.4,38.7c-3.2,11.3-10.3,19.6-20,23.4c-5,2-10.4,2.9-16.6,2.9
		c-5.5,0-11-0.8-16.2-1.8c-1.7,10.5-3.6,25.4-5.7,41.9c-8.3,64.9-15.6,115.9-28.1,133.8C1652.6,1023.8,1638.7,1030.2,1622.2,1030.2z
		"/>
	<path d="M1598,741.9c12.4,0,26.3,2.8,37.4,5.1c21.3,4.2,83.9,15.8,96.9,33.1c10.4,13.9,7.3,39.6-9,46.1c-4,1.6-8.3,2.2-12.7,2.2
		c-8.2,0-16.7-2.1-24.5-4c-7.2,30.4-16.4,157-34.2,182.4c-6.1,8.8-17.7,13-29.6,13c-15,0-30.7-6.5-37.6-18.8
		c-21.3-38.5,18-148.6,32.2-190.1c-4.7,0.6-10.8,1.1-17.3,1.1c-13.2,0-27.5-2.1-32.6-10.2c-7.9-12.1-4.4-29.8,0.2-43.3
		C1571.1,745.6,1583.6,741.9,1598,741.9 M1598,720.9c-35.5,0-47.1,19.2-50.9,30.9c-8.5,25.3-7.8,45.8,2.1,61.2
		c6.9,10.9,19.7,17.4,38.1,19.3c-7.1,21.3-15.4,47.9-21.4,74.2c-11.5,50.2-11.4,83.4,0.3,104.6l0,0.1l0,0.1
		c5.4,9.6,14.1,17.4,25.1,22.7c9.4,4.5,20.1,6.8,30.8,6.8c20,0,37.1-8,46.8-21.9c13.9-19.8,21.2-69.9,29.9-138.5
		c1.4-11.2,2.8-22.1,4.1-31.3c2.4,0.2,4.9,0.4,7.4,0.4c7.4,0,14.2-1.2,20.4-3.6c12.6-5,22.2-16,26.3-30.3
		c4.7-16.6,1.6-34.9-8.1-47.9c-14.4-19.2-53.2-30.1-107.1-40.7l-2.4-0.5C1626.1,723.6,1611.9,720.9,1598,720.9L1598,720.9z"/>
</g>
<g>
	<path class="st1" d="M1874.7,951c-32.1,0-49.4-24.1-49.4-46.8c0-11.2,4-21.5,11.4-29.1c5.7-5.9,16.1-13,33.3-13c0.5,0,1,0,1.5,0
		c2,0,4.3,0.1,6.8,0.2c4.4,0.1,9.4,0.3,14.5,0.3c23.7,0,30.1-3.9,31.7-5.5c0.2-0.2,0.3-0.3,0.4-0.5c-1.4-1-5.5-3.3-16.5-5.3
		c-10.1-1.9-22-2.9-32.5-3.8c-9.2-0.8-16.4-1.4-21.3-2.5c-28.4-6-48.4-22.8-56.5-47.4c-10-30.3,0-67.3,26.1-96.6
		c24.8-27.9,68.1-46.6,107.8-46.6c37,0,63.4,16.5,72.4,45.4c5.2,16.6,7.2,35.2,5.6,51.1c-2.3,21.5-11.1,36.9-25.6,44.5
		c-0.4,0.2-0.8,0.4-1.2,0.6c31.6,13.3,44,43.5,34,83.9c-5.6,23-23.8,41.8-52.7,54.4c-24.1,10.5-55.6,16.4-88.9,16.8
		C1875.3,951,1875,951,1874.7,951z M1910.2,737.4c-7.4,0-14.8,4.4-18.9,11.3c-2.3,3.8-5.3,11.4-0.5,20.3l0.1,0.2
		c0.1,0.2,2.4,4.4,19.3,9.5c3,0.9,6.1,1.7,9.3,2.5c-0.1-0.2-0.3-0.5-0.4-0.7l-0.1-0.1c-3.7-7.6-2.4-17.4-1.2-26.8
		c0.6-4.3,1.5-11.2,1-14.2C1916,738.1,1913.1,737.4,1910.2,737.4z"/>
	<path d="M1932,664.8c28.9,0,54,11.3,62.4,38c8.5,27.2,10.1,69.9-14.9,83.1c-5.5,2.9-12.7,4.4-20,4.4c-12.9,0-26.1-4.8-31.2-14.7
		c-5.3-10.8,7.2-39-3.3-44.9c-4.9-2.7-10-3.9-14.9-3.9c-22.1,0-40.7,24.7-28.7,47.1c9.3,18.1,74.8,23.3,93.8,30.1
		c37.6,13.2,37.9,47.8,31.6,73.1c-10.3,42.5-70.3,62.5-131.4,63.2c-0.3,0-0.5,0-0.8,0c-48.8,0-53.1-67.9-4.7-67.9c0.4,0,0.8,0,1.2,0
		c5.9,0.1,13.5,0.5,21.5,0.5c20.5,0,43.1-2.4,42.8-17.9c-1-18.1-62.7-17-78.8-20.6c-61.6-13-66.6-79.7-24.8-126.8
		C1855.2,681.8,1896.5,664.8,1932,664.8 M1932,643.8c-42.5,0-89,20.1-115.7,50.1c-28.5,32.1-39.4,73-28.2,106.8
		c4.5,13.7,12.3,25.4,23.1,34.8c10.6,9.1,23.6,15.5,38.8,19.1c-9.6,3.2-16.4,8.4-20.9,13.1c-9.2,9.6-14.3,22.5-14.3,36.4
		c0,14.5,5.7,28.8,15.6,39.3c11.1,11.6,26.8,18,44.2,18c0.4,0,0.7,0,1.1,0c35.1-0.4,67.2-6.5,92.9-17.7c32-13.9,52.2-35.2,58.7-61.5
		c9.5-38.3,0.3-69.6-24.9-87.6c8.3-8.6,15.7-22,17.9-42.8c1.8-17.2-0.4-37.4-6-55.3c-5.6-17.8-17.1-31.9-33.2-41
		C1967.4,647.8,1950.9,643.8,1932,643.8L1932,643.8z M1899.5,763c-1.2-3-1-6,0.8-8.9c1.8-2.9,4.6-5.1,7.6-5.9
		c-0.2,1.4-0.4,2.8-0.5,3.9c-0.6,4.5-1.2,9.2-1.4,14C1902.3,764.7,1900.4,763.6,1899.5,763L1899.5,763z"/>
</g>
<g>
	<path class="st1" d="M2159.8,949.1c-13.4,0-25.3-5-32.5-13.7c-3.4-4.1-12.5-14.9-19.9-92.4c-3.8-39.6-5.5-79.9-5.7-92.2
		c-0.5-20.3,0.2-41.2,8.3-56.8c8.4-16.1,23.7-25.3,46.9-28c1.1-0.1,2.3-0.2,3.4-0.2c28.8,0,47.2,40.9,60,76.1
		c7.6-33.6,17.9-70.6,42.2-76.3c7.4-1.7,13.8-2.5,19.6-2.5c17.5,0,29.8,7.9,36.5,23.4c5.3,12.4,7,29.1,8.9,48.4
		c0.6,5.7,1.2,11.6,1.9,17.7c0.4,3.1,1.1,8,2,14.1c11.2,76.3,16.3,126.8,6.8,143.1c-6.3,11-20,17.9-35.8,17.9
		c-15,0-27.8-6-34.3-16.2c-6.5-10.3-9.5-35-12.6-68.9c-7.2,11.1-15.5,19.2-25.8,20.6l-0.2,0c-0.9,0.1-1.8,0.2-2.8,0.2
		c-9.3,0-19.8-5.5-29-12.1c3.2,24.2,6.5,56.8,3.1,70.8C2197.2,938,2180.3,949.1,2159.8,949.1z"/>
	<path d="M2282,673.6c33.1,0,31.3,32.6,36.9,80.3c2.9,22.5,21.3,131.7,10.2,150.7c-4.7,8.4-15.8,12.6-26.7,12.6
		c-10.3,0-20.6-3.8-25.4-11.3c-8.9-14.2-11.5-82.7-14.7-99.5c-6.3,14-19.3,44.4-33.9,46.4c-0.5,0.1-1,0.1-1.6,0.1
		c-13.5,0-34.2-18.6-43.6-28.5c3,18,11.9,77.6,7.6,95.2c-2.8,12-16.9,18.9-30.9,18.9c-9.5,0-18.8-3.1-24.5-9.9
		c-16.2-19.4-22.8-152.4-23.2-178.1c-1-44,4.6-69.4,45.9-74.1c0.7-0.1,1.5-0.1,2.2-0.1c31.6,0,52.4,78.7,62,102.7
		c8.3-27.3,16-97,42.6-103.2C2271.4,674.3,2277.1,673.6,2282,673.6 M2282,652.6c-6.6,0-13.8,0.9-21.9,2.8l-0.1,0l-0.1,0
		c-9.7,2.3-18.3,8.3-25.4,17.7c-4.8,6.4-9,14.5-12.9,24.6c-1.3,3.6-2.6,7.2-3.8,11c-1.7-3.8-3.6-7.5-5.5-11
		c-6.2-11.6-12.5-20.5-19.2-27.2c-10.1-10-21.2-15.1-33.1-15.1c-1.5,0-3.1,0.1-4.6,0.3c-13.2,1.5-24,4.9-33,10.2
		c-9.5,5.6-16.9,13.5-22,23.4c-9.1,17.6-9.9,40.1-9.5,61.8c0.2,12.5,2,53.1,5.8,93c6.8,71.1,15.1,89.5,22.3,98.2
		c9.2,11.1,24,17.4,40.6,17.4c25.4,0,46.5-14.4,51.4-35c1.5-6.4,3.1-19-0.5-53.9c5.7,2.2,11,3.3,16.1,3.3c1.3,0,2.7-0.1,4-0.2l0.2,0
		l0.2,0c6-0.8,11.4-3.2,16.3-6.6c3,26.2,6.1,41.1,11.8,50.1l0.1,0.1l0.1,0.1c8.4,13.1,24.6,21,43.1,21c19.6,0,36.8-8.9,45-23.2
		c5.7-9.9,8.6-26.1,4.3-72.7c-2.6-27.9-7.1-58.8-9.8-77.2c-0.9-6-1.6-10.8-2-13.9c-0.7-6.1-1.3-11.9-1.8-17.5
		c-2-20.2-3.8-37.7-9.7-51.5C2319.8,662.9,2303.9,652.6,2282,652.6L2282,652.6z"/>
</g>
<g>
	<path class="st1" d="M2436.6,1050.5c-48.1,0-91.8-34.5-106.4-83.8c-13.7-46-5.4-94.6,2.7-141.6c1.8-10.5,3.7-21.3,5.2-31.7
		c2.8-19.1,22.5-32.4,48-32.4c19.6,0,36,7.8,44.1,20.8c9.5,15.4,4.7,45.1-2.6,82.4c-2.2,11.4-4.3,22.2-4.7,28.3
		c-0.8,15.2-0.7,32.4,6.8,44.4c1.8,2.7,4.7,5.9,8.4,5.9c6.2,0,15.4-8.8,16.4-23.3c0.9-15.1-1.5-30.5-3.9-46.8
		c-3.4-22.6-7-46-1.5-69.3c4.6-19.1,22.4-31.4,45.3-31.4c18.9,0,34.9,8.1,40.6,20.7l0,0.1c11.1,24.8,10.3,93.4,9.1,110.5l0,0.2
		c-4.1,46.1-10.2,89.9-39.7,118.7C2485.6,1040.7,2462.1,1050.5,2436.6,1050.5z"/>
	<path d="M2386.1,771.4c14.2,0,28.6,5.2,35.2,15.8c11.7,18.9-7.6,82.5-8.8,104.6c-0.9,17-0.6,36.2,8.5,50.7
		c5,7.5,11.1,10.7,17.2,10.7c12.9,0,25.6-14.3,26.9-33.1c2.2-38.1-14.5-77.2-5.7-114.3c4-16.5,19.8-23.4,35.1-23.4
		c13.7,0,26.9,5.5,31.1,14.5c9.1,20.5,9.8,83.2,8.2,105.5c-3.5,39.1-8.5,84.7-36.5,112.1c-17.9,17.4-39.3,25.3-60.6,25.3
		c-41.5,0-82.5-29.7-96.3-76.3c-16.1-53.9,0-113.1,8.2-168.8C2350.8,779.5,2368.4,771.4,2386.1,771.4 M2386.1,750.4
		c-12.7,0-25.1,3.1-35,8.7c-13.1,7.4-21.4,19-23.4,32.6c-1.5,10.3-3.3,20.6-5.1,31.5c-8.3,48.2-16.8,98-2.4,146.4
		c7.9,26.7,23.4,49.6,45,66.3c20.9,16.2,46.3,25.1,71.4,25.1c28.3,0,54.3-10.8,75.3-31.3c15.4-15,26.2-35.1,33.1-61.4
		c5.6-21.1,7.8-43.2,9.7-63.9l0-0.2l0-0.2c0.8-11.7,1.1-33.5-0.1-56c-2.2-42.3-8-55.2-9.9-59.5l0-0.1l0-0.1
		c-7.5-16.3-27.2-26.8-50.2-26.8c-22.5,0-41.1,10.1-50.4,26.6c-1.1-4.4-2.7-8.3-4.9-11.9C2429.2,760.1,2409.3,750.4,2386.1,750.4
		L2386.1,750.4z M2438.6,931.2c-5.9-9.6-5.9-25.4-5.2-38.1c0.3-5.3,2.4-16.3,4.5-26.8c0.2-1.1,0.4-2.2,0.6-3.3
		c0.5,3.8,1.1,7.6,1.7,11.4c2.4,15.7,4.6,30.5,3.8,44.6c-0.5,6.4-3.3,10.8-5.3,12.6C2438.7,931.4,2438.7,931.3,2438.6,931.2
		L2438.6,931.2z"/>
</g>
<g>
	<path class="st1" d="M2584.5,949.2c-0.8,0-1.7,0-2.5-0.1c-9.4-0.5-18.7-6.6-24.8-16.3l-0.2-0.3l-0.1-0.3
		c-3.7-6.8-6.2-14.3-8.3-20.9l-0.2-0.7c-7.9-24.9-12.5-50.7-17.1-75.6l-1.1-6.3c-6.3-34.6-12.4-75.4-9.9-115.7
		c0.1-0.9,0.1-1.7,0.2-2.6c0.4-8,1-17.9,7-26l0.3-0.3l0.3-0.3c3.3-3.8,8.2-7.1,14.3-9.8c8.4-3.6,17.4-5.4,26.3-5.4
		c2.9,0,5.8,0.2,8.7,0.6c8.1,1,16,4.2,22.1,8.8l0.2,0.2l0.2,0.2c4.1,3.4,9.7,8.8,11.9,16.6c3.1,9.5,4.1,19.1,5.1,27.6l0,0.3
		c1.8,23.3,3.7,48.2,5.2,72.5l0,0.1c0.9,17.3,0.9,34.8,1,51.7c0,0.3,0,0.7,0,1c9.4-2.5,19.5-5.5,30.9-9.1c3.2-1,6.7-1.5,10-1.5
		c5.5,0,10.6,1.4,14.6,3.9c5.5,3.4,8.8,8.4,11.2,12.8c8.1,13.3,11.1,29.5,8,43.2l0,0.2c-2.2,8.7-8.5,16.9-17.4,22.5l-0.2,0.1
		c-7.6,4.6-16.2,6.7-23.7,8.6c-2.4,0.6-4.7,1.2-6.9,1.8l-0.2,0l-0.2,0c-10.7,2.6-19.9,5.3-28.3,8.2c-2.3,0.8-4.7,1.8-7.3,2.8
		C2604.9,945.3,2595.1,949.2,2584.5,949.2z"/>
	<path d="M2568.5,679.1c2.4,0,4.9,0.2,7.3,0.5c6.2,0.8,12.4,3.2,17.2,6.8c3.8,3.2,7.4,7,8.5,11.6c2.8,8.5,3.8,17.2,4.7,25.7
		c1.9,24.3,3.7,48.3,5.2,72.4c1.1,21.9,0.9,43.7,1.1,65.8c15-3.7,29.6-8,44.5-12.6c2.2-0.7,4.5-1,6.9-1c3.3,0,6.5,0.7,9,2.3
		c3.6,2.2,5.8,5.7,7.7,9.2c6.4,10.4,9.5,23.9,6.8,35.6c-1.7,6.7-7,12.5-12.8,16.1c-8.4,5-18.7,6.6-28.1,9.3
		c-9.8,2.4-19.6,5.2-29.2,8.5c-10.5,3.7-21.6,9.6-32.9,9.6c-0.6,0-1.2,0-1.9-0.1c-6.8-0.4-12.9-5.7-16.5-11.4
		c-3.4-6.1-5.6-13.1-7.8-19.7c-8.3-26.3-12.9-53.4-17.9-80.6c-6.8-37.2-12.1-75.3-9.7-113.2c0.5-7.8,0.5-16.7,5.1-23
		c2.6-3,6.7-5.4,10.6-7C2553.4,680.7,2561,679.1,2568.5,679.1 M2568.5,658.1c-10.2,0-20.7,2.2-30.3,6.2l0,0l0,0
		c-7.6,3.3-13.7,7.5-18.1,12.5l-0.6,0.7l-0.5,0.7c-7.8,10.6-8.5,22.8-9,31.6c0,0.8-0.1,1.7-0.1,2.5c-2.6,41.4,3.6,83.1,10,118.3
		c0.4,2.1,0.8,4.2,1.1,6.3c4.6,25.2,9.3,51.3,17.4,76.9l0,0.1l0,0.1l0.2,0.6c2.3,7.1,4.9,15,9.1,22.7l0.3,0.5l0.3,0.5
		c7.9,12.6,20.3,20.5,33.1,21.2c1,0.1,2,0.1,3,0.1c12.6,0,23.9-4.5,32.9-8.1c2.5-1,4.8-1.9,7-2.7c8-2.8,16.9-5.4,27.3-7.9l0.3-0.1
		l0.3-0.1c2-0.6,4.2-1.1,6.6-1.7c8.3-2.1,17.7-4.4,26.6-9.8l0.2-0.1l0.2-0.1c11.2-7,19.2-17.5,22-28.8l0-0.2l0-0.2
		c3.7-16.3,0.3-35.2-9.1-50.8c-2.9-5.2-7.2-11.7-14.8-16.4c-5.7-3.6-12.7-5.5-20.1-5.5c-4.4,0-8.9,0.7-13,1.9l0,0l0,0
		c-6.2,1.9-11.9,3.7-17.4,5.2c-0.1-13-0.3-26.2-1-39.4l0-0.1l0-0.1c-1.5-24.5-3.4-49.3-5.2-72.7l0-0.3l0-0.3c-0.9-8.5-2-19-5.4-29.5
		c-2.2-7.9-7.2-15-15.2-21.7l-0.4-0.4l-0.5-0.3c-7.6-5.7-17.2-9.5-27-10.8C2575.3,658.3,2571.9,658.1,2568.5,658.1L2568.5,658.1z"/>
</g>
<g>
	<path class="st1" d="M2847.6,1073.7c-25.3,0-43.4-13-44.9-32.4c-0.2-1.6-0.3-3.5-0.6-5.7c-1-10.1-2.5-26-4.6-44.2
		c-12.8,0.4-26.5,0.8-40.1,1.1c-5.2,22.9-12.7,45.9-29.4,53.4l-0.2,0.1c-5.3,2.3-11.2,3.4-17.3,3.4c-21.6,0-41.1-13.7-45.2-31.9
		l0-0.2c-1-4.7-1-10.7,0.1-19.2c-1.1-0.2-2.1-0.5-3-0.9l-0.4-0.1c-6.5-2.7-11.9-8.5-14.1-15.2c-4.2-12.5-7.5-36.5,6.2-47.7l0.2-0.1
		l0.2-0.1c7-5.3,15.6-6.5,22.5-7.6l0.6-0.1c1.9-0.3,4.6-0.6,7.4-0.9c0.5-1.6,1-3,1.5-4.5c1.1-3.4,2.1-6.3,2.9-8.6
		c23.2-66.7,40.7-106.7,51.9-118.9l0.1-0.1c13.7-14.6,33-22.9,52.9-22.9c23.4,0,43.1,11.8,52.7,31.5c11.2,22.5,23.3,63.4,32.8,110.5
		c4.4,0.6,9.6,1.7,13.2,3.5l0.2,0.1l0.2,0.1c4.3,2.4,8.3,6.5,11,11.2c6,10.4,6.7,22.3,6.7,30.4v0.3l0,0.3
		c-0.5,8.6-3.2,15.6-7.8,20.6l-0.2,0.2l-0.2,0.2c-3.1,3.1-6.9,5.6-11.6,7.4c0.2,1.6,0.3,3.2,0.5,4.8c0.2,2.6,0.6,6,1,10
		c2.5,21.8,4,40.8-2.3,52.3C2883.6,1066,2866.9,1073.7,2847.6,1073.7z M2783.8,898.6c-2.8,7.4-5.5,15.2-8.1,23.4
		c3.9-0.2,8-0.5,12.2-0.9C2786.4,912.2,2785,904.8,2783.8,898.6z"/>
	<path d="M2794.2,781c17.9,0,34.8,8.2,43.3,25.6c12.9,25.8,25.2,72.8,33.4,115.6c6.6,0.3,14.2,1.6,17.3,3.1c2.8,1.6,5.4,4.4,6.9,7.2
		c4.4,7.6,5.4,16.7,5.4,25.2c-0.3,5-1.6,10.4-5,14.2c-2.8,2.8-6.6,4.7-10.4,6c-1.6,0.6-3.5,1.3-5,1.9c0.3,4.4,0.9,8.5,1.3,12.6
		c0.9,13.2,6.6,44.4,0,56.4c-5.2,9.2-19.4,14.3-33.6,14.3c-16.7,0-33.3-7.1-34.5-22.8c-0.9-9.5-3.2-33.1-6.3-59.9
		c-19.2,0.6-38.7,1.3-58,1.6c-4.1,19.8-10.4,47.6-25.2,54.2c-4.2,1.8-8.7,2.6-13.2,2.6c-15.7,0-31.8-9.8-35-23.7
		c-1.3-6,0-15.8,2.2-27.4c-2.1,0.3-4.2,0.4-6,0.4c-2.3,0-4.2-0.2-5.6-0.8c-3.8-1.6-6.9-5-8.2-8.8c-3.5-10.4-5.7-29.3,2.8-36.2
		c5-3.8,12-4.7,18.3-5.7c2.2-0.3,9.1-1.3,13.5-1.3c2.8-8.2,5-15.1,6.6-19.5c7.2-20.8,34.7-98.9,49.8-115.3
		C2761,787.8,2778,781,2794.2,781 M2761.2,933.3c4.4-0.3,8.5-0.3,12.9-0.6c8.5-0.3,17.3-1.3,25.8-2.2c-4.4-29-9.5-54.8-14.2-64.3
		C2776.3,887,2768.1,910.3,2761.2,933.3 M2794.2,760v21V760L2794.2,760L2794.2,760c-22.8,0-44.9,9.6-60.6,26.2l-0.1,0.1l-0.1,0.1
		c-5.7,6.2-14.5,18.9-31.9,62.5c-10.1,25.4-19.2,51.4-22.2,60.1c-0.7,2-1.5,4.2-2.3,6.9c-0.3,0-0.7,0.1-1,0.1l-0.1,0l-0.1,0
		l-0.5,0.1c-7.6,1.1-18.1,2.7-27.2,9.6l-0.3,0.3l-0.3,0.3c-6.1,5-13.4,14.7-13.6,32.9c-0.1,8.5,1.4,18.1,4.1,26.3
		c2.7,8.3,8.7,15.4,16.2,19.7c-0.3,5.3-0.1,10.1,0.8,14.6l0,0.2l0,0.2c2.7,11.9,10.4,22.6,21.7,30c9.9,6.5,21.9,10.1,33.7,10.1
		c7.6,0,14.8-1.4,21.4-4.2l0.2-0.1l0.2-0.1c18.8-8.4,27.7-30,33.5-52.7c7.6-0.2,15.1-0.4,22.4-0.6c1.5,14.1,2.7,26.2,3.5,34.5
		c0.2,2.2,0.4,4.1,0.6,5.7c1.2,14.1,8.9,26,21.7,33.5c11.8,6.9,24.8,8.4,33.7,8.4c18.3,0,41.5-6.6,51.9-25l0-0.1l0-0.1
		c7.8-14.2,6.2-34.9,3.5-58.6c-0.3-2.7-0.6-5.3-0.8-7.4c2.9-1.8,5.6-3.9,7.9-6.2l0.3-0.3l0.3-0.3c6.3-6.9,9.8-16,10.5-27.1l0-0.7
		v-0.7c0-9.3-0.8-23-8.1-35.6c-3.6-6.5-8.9-11.9-15-15.2l-0.4-0.2l-0.4-0.2c-2.7-1.3-5.8-2.3-9-3.1c-6.1-29.2-17.5-76.6-32.2-106.2
		C2844.8,774,2821.7,760,2794.2,760L2794.2,760z"/>
</g>
<g>
	<path class="st1" d="M2925.4,939.8c-11.5,0-21.6-3.3-29.4-9.6c-16.4-13.5-28-43.1-35.3-90.6c-5-32-7-65.9-8.2-89.8
		c-9,3.8-19.7,7.1-29.2,7.1c-6.8,0-12.5-1.7-17-4.9c-12.2-8.7-19-24.9-20.2-48.2c-0.7-10.7,3.3-25.6,26.2-35.8
		c12.6-5.6,27.5-8.5,41.8-10.9l2.5-0.5c16.2-3,49.8-9.4,75.4-9.4c14.5,0,24.9,2,31.7,6.2c10.9,6.7,18.8,19.9,20.2,33.6
		c1.2,11.7-2.3,22-9.9,29.2c-8.4,7.9-19.7,11.2-30.1,13.1c2.3,10.4,6,24.9,10.2,41c16.3,63.4,28.4,113.5,23.3,134.7
		C2972.2,927.6,2946.7,939.8,2925.4,939.8z"/>
	<path d="M2932.1,657.7c11.2,0,20.7,1.3,26.2,4.7c14.8,9.1,21.4,34.1,8.6,46.1c-9,8.4-23.1,10.4-35.2,12
		c4.5,30.9,42.8,151.9,35.6,182.1c-3.8,16.1-23.5,26.7-41.8,26.7c-8.4,0-16.6-2.2-22.8-7.3c-34.1-27.9-38.3-144.7-40.4-188.6
		c-9.4,5.1-26.2,12.9-38.9,12.9c-4.2,0-8-0.9-10.8-3c-11.8-8.4-15.1-26-15.9-40.3c-1.7-24.7,35.1-31.6,59.3-35.8
		C2871,664.6,2906,657.7,2932.1,657.7 M2932.1,636.7v21V636.7c-26.6,0-60.9,6.4-77.4,9.5l-2.4,0.5c-14.9,2.6-30.5,5.6-44.2,11.7
		c-29.9,13.2-33.1,34.4-32.4,46c1.4,26.6,9.7,45.5,24.6,56.1c6.3,4.6,14.1,6.9,23.1,6.9c6.3,0,13-1.2,19.4-3
		c1.3,22.4,3.4,50.2,7.6,76.9c7.9,50.9,20.3,81.7,39,97.1l0.1,0l0.1,0c9.6,7.8,22.1,11.9,36,11.9c13,0,26.2-3.7,37.3-10.4
		c13-7.9,21.9-19.5,25-32.5c5.6-23.6-6.1-72.8-23.4-139.7c-2.8-11-5.6-21.6-7.7-30.6c8.6-2.5,17.3-6.5,24.6-13.3
		c9.9-9.3,14.7-23.1,13.2-37.9c-1.7-17.1-11.4-33-25.2-41.5C2960.6,639.2,2948.8,636.7,2932.1,636.7L2932.1,636.7z"/>
</g>
<g>
	<path class="st1" d="M3064,1030.4c-24.7,0-48.5-8.7-67-24.6c-20.2-17.3-32.6-41.4-35.8-69.8c-6.2-54.2,11-112.9,43.7-149.6
		c21-23.6,46.8-36,74.4-36c11.1,0,22.5,2,33.9,6.1c28.7,10,49.8,29.9,61,57.5c17,41.9,10.6,101.9-16.7,156.5
		C3138.8,1008,3103.9,1030.4,3064,1030.4z M3084.3,846.8c-6.2,0-12.7,3.6-17.5,9.6c-14.7,18.4-22.8,54-11.2,69.3
		c3.9,5,8.8,6.1,12.2,6.1c0,0,0,0,0,0c6,0,11.8-3.2,15.6-8.6c8.7-12.6,17.9-52.2,13.7-65.8C3094.4,848.6,3088.7,846.8,3084.3,846.8z
		"/>
	<path d="M3079.3,760.9c9.7,0,19.8,1.7,30.4,5.5c78.4,27.4,75.3,125.7,38.4,199.4c-18.4,37-51.4,54.1-84.1,54.1
		c-43.5,0-86.2-30.5-92.4-85C2962.5,854.7,3008,760.9,3079.3,760.9 M3067.8,942.3c9,0,18.2-4.6,24.2-13.1
		c10.4-15.1,20.5-57.6,15.1-75c-3.7-12.1-12.8-18-22.8-18c-8.9,0-18.6,4.6-25.7,13.6c-16.4,20.5-27.1,61.4-11.3,82.2
		C3052.6,939,3060.1,942.3,3067.8,942.3 M3079.3,739.9v21V739.9L3079.3,739.9L3079.3,739.9c-30.7,0-59.1,13.7-82.2,39.6
		c-34.6,38.8-52.8,100.7-46.3,157.8c3.5,31,17.1,57.5,39.4,76.5c20.4,17.5,46.7,27.1,73.8,27.1c43.9,0,82.4-24.6,102.8-65.8
		c13.2-26.5,22.1-55.1,25.6-82.6c3.9-30.6,0.9-59.1-8.6-82.5c-12.4-30.5-35.6-52.4-67.3-63.5
		C3104.1,742.1,3091.5,739.9,3079.3,739.9L3079.3,739.9z M3063.9,919.3c-3.4-4.6-4.3-14-2.4-24.8c2.1-11.6,7.3-23.9,13.4-31.6
		c3.4-4.2,7.1-5.7,9.3-5.7c0.9,0,1.8,0,2.7,3l0,0.1l0,0.1c0.9,2.8,1.1,12.8-2.1,27.7c-2.9,13.5-7.3,24.8-10.2,29.1c-2.1,3-5,4-6.9,4
		C3066.2,921.3,3065,920.7,3063.9,919.3L3063.9,919.3z"/>
</g>
<g>
	<path class="st1" d="M3232.1,980.9c-8.1,0-15.3-2.1-21.4-6.2l-0.2-0.1c-9.3-6.5-23.1-24.2-35.8-101.9
		c-7.4-41.7-15.8-88.9-12.7-136.4c0.9-15,7.2-33.2,22.3-39.4l0.1,0c8.4-3.3,16.7-5,24.6-5c18.3,0,32,8.8,38.5,23.8
		c17.2-10.3,35.3-15.7,53-15.7c30.9,0,59.3,16.7,74.1,43.5c15.2,27.5,13.6,60.9-4.3,89.3c-8.7,13.8-21.5,26.8-36.6,37.3
		c6.1,2.5,12.1,4.7,18.4,6.5c1.1,0.3,2.5,0.7,4.2,1.2c19.6,5.3,31.3,9.3,36.6,15.1l0.2,0.2c14.2,16.3,7.6,41.8-7,57
		c-4.9,5.2-11.2,9.1-17.7,11c-4.5,1.3-9.1,1.9-14,1.9c-5.4,0-10.9-0.8-16.4-2.3l-0.2-0.1c-17-5-34.5-14.8-53.4-29.8l-0.1-0.1
		c-1.5-1.2-2.9-2.4-4.4-3.6c0.4,4.4,0.5,8.8,0.3,13c-1.2,22.8-12.6,31.7-22,35.2C3247.9,979.2,3239.7,980.9,3232.1,980.9z
		 M3294.2,774.7c-7.3,0-19.4,4.5-27.2,12.7c-2.8,2.9-6,7.5-5.8,12.5l0,0.1c0.3,7,1.8,9.6,2.5,10.4c0.3,0.4,0.7,0.9,2.4,0.9
		c7.3,0,19.3-8.7,23-14.2c10.1-15.1,9.3-21,9.1-21.8C3297.8,775.2,3296.5,774.7,3294.2,774.7z"/>
	<path d="M3208.9,702.4c17.1,0,30.3,9.9,32,30.5c20.4-15.7,40.9-22.4,59.6-22.4c56.6,0,95.6,61.5,60.9,116.7
		c-11.1,17.8-29.9,33.9-50.8,44.4c12.7,5.6,25.1,11.2,38.5,15.1c7,2,30.9,7.7,36,13.3c10.2,11.7,4.2,31.6-6.7,42.9
		c-3.5,3.8-8.2,6.8-13,8.2c-3.6,1-7.3,1.5-11,1.5c-4.6,0-9.2-0.7-13.7-1.9c-18.1-5.3-34.9-16-49.9-27.9
		c-8.8-7.2-17.4-14.7-25.7-22.6c4.9,26.3,10.7,57.6-10.7,65.6c-7.1,2.6-14.9,4.8-22.3,4.8c-5.5,0-10.9-1.2-15.6-4.4
		c-17.3-12.2-28-73.6-31.5-95.1c-7.8-44-15.5-89.1-12.6-133.9c0.7-11.6,5.3-26.1,15.8-30.3C3195.3,703.8,3202.4,702.4,3208.9,702.4
		 M3266,821.9c11.7,0,26.5-11.2,31.7-18.8c18.8-28.1,10.8-38.8-3.5-38.8c-17.5,0-44.5,16.1-43.5,36.3
		C3251.3,816.4,3257.9,821.9,3266,821.9 M3208.9,681.4c-9.2,0-18.8,1.9-28.5,5.8l-0.1,0l-0.1,0c-19.7,8-27.8,30.3-28.8,48.5
		c-3.1,48.7,5.4,96.5,12.9,138.7c13.2,80.6,28.4,100.5,40.1,108.7l0.2,0.1l0.2,0.1c7.9,5.3,17,7.9,27.3,7.9c8.9,0,18.3-2,29.6-6.1
		c9.3-3.5,24.4-12.8,28.1-37.2c15.5,10.8,30.3,18.3,44.9,22.6l0.2,0.1l0.2,0.1c6.4,1.8,12.9,2.7,19.2,2.7c5.8,0,11.4-0.8,16.7-2.3
		l0.1,0l0.1,0c8.3-2.4,16.2-7.4,22.3-13.9c17.8-18.6,25.5-50.3,7.3-71.2l-0.2-0.2l-0.2-0.2c-7.1-7.8-19.6-12.3-41.7-18.2
		c-1.6-0.4-3-0.8-3.9-1.1c9.6-8.6,17.9-18.2,24.1-28.2c10.3-16.3,15.8-33.8,16.3-51.8c0.5-16.8-3.6-33.4-11.7-48.1
		c-8-14.5-19.8-26.7-34-35.3c-14.8-8.9-31.8-13.6-49.3-13.6c-16.5,0-33.1,4.1-49.2,12.1c-2-2.7-4.2-5.1-6.7-7.3
		C3235.2,685.9,3222.8,681.4,3208.9,681.4L3208.9,681.4z M3272,798.2c0.4-0.9,1.2-2.1,2.5-3.5c1.9-2,4.4-3.8,7-5.3
		c-0.4,0.6-0.8,1.3-1.3,2C3279,793.2,3275.4,796.1,3272,798.2L3272,798.2z"/>
</g>
<g>
	<path class="st1" d="M2044.6,1038.5c-31.4,0-66.8-12.6-71.8-33.7c-1.5-6.4-1.3-18.1,14.9-28.5c1.8-34.8,20-122.5,26.3-151.7
		c-10.4-4.6-17.9-13.4-20-24.3c-2.5-12.9,3.4-25.2,15.4-32.1c12.9-7.4,30-8.4,43.4-8.4c4.9,0,9.8,0.1,14.4,0.3
		c40.1,0.9,73.4,20.4,74.1,43.6c0.2,7.5-3,24.7-35.7,29.4c-9.3,30.1-25.1,113.1-26.7,145.5c11.9,5.2,20.2,15.7,21.2,27.6
		c0.9,11.6-5.5,21.4-16.9,25.6C2071.8,1036.2,2058.4,1038.5,2044.6,1038.5z"/>
	<path d="M2052.8,770.3c4.8,0,9.5,0.1,14.1,0.3c61.6,1.4,91.2,47.9,30.9,52.8c-10,26.2-30.7,134.9-29.5,162.8
		c21.7,4.2,29.4,29,11.1,35.8c-11,4.3-23,6.1-34.8,6.1c-44.5,0-85-26.1-46.5-45.5c-0.7-28.8,22.1-137.5,28.2-165.2
		c-23.1-3.2-30.6-29.2-11.8-40C2024.8,771.4,2038.8,770.3,2052.8,770.3 M2052.8,749.3L2052.8,749.3c-14.7,0-33.6,1.1-48.7,9.8
		c-15.8,9.1-23.8,26.1-20.4,43.3c1.7,9,6.5,17.4,13.5,23.7c1.6,1.4,3.2,2.7,4.9,3.9c-7,33-21.6,104.7-24.5,140.6
		c-17.9,13.7-16.7,29.7-15,36.6c6.5,27.4,46.2,41.8,82,41.8c15.3,0,29.5-2.5,42.3-7.5c15.7-5.9,24.9-20.1,23.6-36.3
		c-1.1-13.4-9-25.3-20.6-32.7c1.2-13.7,4.3-35.8,9.6-64.6c4.8-26.1,10.2-50.6,14.4-65.7c8.1-1.8,15-4.5,20.7-8.1
		c11.3-7.3,17.6-18.5,17.3-30.8c-0.8-29.1-37.9-52.7-84.3-53.8C2062.7,749.4,2057.9,749.3,2052.8,749.3L2052.8,749.3z"/>
</g>
</svg>
